<svg xmlns="http://www.w3.org/2000/svg" viewBox="0 0 71 71"><defs><style>.cls-1{opacity:0.95;}.cls-2{fill:#fdfdfd;stroke:#000;stroke-miterlimit:10;}.cls-3{fill:#272324;}.cls-4{fill:#fbfafb;}.cls-5{fill:#f8f8f8;}.cls-6{fill:#fafafa;}.cls-7{fill:#41d622;}.cls-8{fill:#41d722;}.cls-9{fill:#c9c8c8;}</style></defs><g id="Layer_2" data-name="Layer 2"><g id="Layer_1-2" data-name="Layer 1"><g class="cls-1"><path class="cls-2" d="M35.47,70.5a35,35,0,1,1,35-36A34.94,34.94,0,0,1,35.47,70.5ZM18,63.31c1.32.22,2.48.38,3.63.6.65.12,1.11.21,1.44-.63s1-1.43,1.36-2.24A39.85,39.85,0,0,1,28,54.93a1.07,1.07,0,0,1,1-.56c5.93,0,11.86,0,17.79,0A4.52,4.52,0,0,0,51.23,50c-.08-7.3,0-14.6,0-21.9,0-.34,0-.64.36-.87A40.42,40.42,0,0,1,56,24.94a26.36,26.36,0,0,0,5.75-3.49,4.34,4.34,0,0,0,1.59-2.64,2.37,2.37,0,0,0-1.5-2.74,2.72,2.72,0,0,0-3.71,2.72c0,.7.31.93,1,.73a1.22,1.22,0,0,1,.61-.06,2.89,2.89,0,0,1-.69.67,26,26,0,0,1-6.53,3.08c-1.26.36-1.26.36-1.26-.91A4.19,4.19,0,0,0,47,18.13H18.83a4.17,4.17,0,0,0-4.2,4.14q0,14,0,28a4.19,4.19,0,0,0,4.24,4.11h4c.18,0,.38-.08.55.1-.81,1.43-1.63,2.85-2.41,4.3S19.55,62.05,18,63.31Z"/><path class="cls-3" d="M18,63.31c1.55-1.26,2.16-3,3-4.52s1.6-2.87,2.41-4.3c-.17-.18-.37-.1-.55-.1h-4a4.19,4.19,0,0,1-4.24-4.11q0-14,0-28a4.17,4.17,0,0,1,4.2-4.14H47A4.19,4.19,0,0,1,51.2,22.3c0,1.27,0,1.27,1.26.91A26,26,0,0,0,59,20.13a2.89,2.89,0,0,0,.69-.67,1.22,1.22,0,0,0-.61.06c-.67.2-1,0-1-.73a2.72,2.72,0,0,1,3.71-2.72,2.37,2.37,0,0,1,1.5,2.74,4.34,4.34,0,0,1-1.59,2.64A26.36,26.36,0,0,1,56,24.94a40.42,40.42,0,0,0-4.4,2.24c-.39.23-.36.53-.36.87,0,7.3-.05,14.6,0,21.9a4.52,4.52,0,0,1-4.46,4.46c-5.93-.09-11.86,0-17.79,0a1.07,1.07,0,0,0-1,.56A39.85,39.85,0,0,0,24.43,61c-.36.81-1.05,1.45-1.36,2.24s-.79.75-1.44.63C20.48,63.69,19.32,63.53,18,63.31Zm9.67-32.16a.45.45,0,0,0-.25.38,3.88,3.88,0,0,1-1.56,1.39,4.1,4.1,0,0,0-1.16,0l-1.16-.08a.48.48,0,0,0-.51-.06l-1-.08-.16-.17.34-1a.75.75,0,0,0,.27-.59l.14-.3a.89.89,0,0,0,.28-.6l.22-.43a.35.35,0,0,0,.17-.34l.19-.32a.31.31,0,0,0,.21-.31l.17-.22a.32.32,0,0,0,.23-.29l.64-.65a.32.32,0,0,0,.3-.23.06.06,0,0,0,.08-.05,4.42,4.42,0,0,0,1.11-.55l.81-.26a.21.21,0,0,0,.27-.09l.24-.05,3.1-.71.25,0a.32.32,0,0,0,.4-.08l.37,0a.6.6,0,0,0,.52-.09l.5-.05a.62.62,0,0,0,.53-.09l.38,0a.61.61,0,0,0,.52-.1l.5-.05a.51.51,0,0,0,.52-.09l.38,0a5.47,5.47,0,0,0,1.46-.1c1.66-.11,3.32-.24,5-.36l.63,0a4.56,4.56,0,0,0,1.56-.09l1.4,0a2.29,2.29,0,0,0,1.16-.08l.89-.06a.62.62,0,0,0,.53-.07l.5,0a.6.6,0,0,0,.52-.1l.38,0a.34.34,0,0,0,.39-.09l.25,0c.26.07.43,0,.44-.3a2.94,2.94,0,0,0-.06-1.18l-.06-.5a.19.19,0,0,0-.06-.27.88.88,0,0,0-.17-.5.29.29,0,0,0-.16-.34,3.62,3.62,0,0,0-3.45-1.91H19.24a3.66,3.66,0,0,0-3.93,3.88c0,2.91,0,5.82,0,8.74a.89.89,0,0,0,.37.76,4.55,4.55,0,0,1,1.27,1.35c.17.31.35.32.66.21A8.66,8.66,0,0,1,21,33.21c1.3.08,2.6.15,3.9.31a2.62,2.62,0,0,0,2.52-1.07c.33-.42.63-.84,1-1.36a19.34,19.34,0,0,1,.74,4.06,18,18,0,0,1-.75,7.67,4.58,4.58,0,0,1-2.14,2.54,10,10,0,0,1-3.86,1.1,17.57,17.57,0,0,1-6.61-.61c-.3-.09-.54-.16-.53.3,0,1.4-.05,2.79,0,4.18a3.56,3.56,0,0,0,3.71,3.41h3.21c.16,0,.35.08.5-.15a21.92,21.92,0,0,1-5.22-6.5c.15-.24.38-.12.58-.09a16.32,16.32,0,0,0,3.2.17A9.81,9.81,0,0,0,25,46.53l.5-.16c.38.24.18.59.13.87a25,25,0,0,1-1.91,6c-.07.16-.28.37,0,.5s.31-.14.41-.3a11.68,11.68,0,0,0,.94-2,15.25,15.25,0,0,0,1.18-5.23l.3-.27a.29.29,0,0,0,.32-.19s.06,0,.07,0a.28.28,0,0,0,.31-.22,1,1,0,0,0,.48-.39.77.77,0,0,0,.48-.54s.05,0,.05-.08a.28.28,0,0,0,.21-.31s.05,0,.05-.08a1.26,1.26,0,0,0,.42-.83,2.78,2.78,0,0,0,.3-.88A8.06,8.06,0,0,0,29.76,39l0-.63a4.84,4.84,0,0,0,0-2l0-.63a5.54,5.54,0,0,0-.21-2.07l0-.25a4.05,4.05,0,0,0-.35-1.68l-.05-.24a.2.2,0,0,0-.08-.27l-.34-1.05a.26.26,0,0,0-.12-.31c-.14-.07-.18,0-.2.15h0a.73.73,0,0,0-.33.56.06.06,0,0,0,0,.08.81.81,0,0,0-.34.56ZM50.54,39.4V28.48c0-.17.1-.42-.12-.51s-.31.11-.45.19a23.3,23.3,0,0,0-2.36,1.67,3.34,3.34,0,0,0-1.24,1.75,6.67,6.67,0,0,0-.07,2.67,8.19,8.19,0,0,0,2,4.89,4.19,4.19,0,0,1,.79,4.77,16,16,0,0,1-1.89,3.42,22.7,22.7,0,0,0-2.53,6c-.09.28,0,.4.29.4h1.55c2.58,0,4-1.47,4-4.07ZM34.15,53.74H38.9a1,1,0,0,0,.67-.16A4.09,4.09,0,0,0,41.16,49a4,4,0,0,0-3.89-2.8,5.92,5.92,0,0,0-3.65,1.39c-2.08,1.52-3.35,3.69-4.67,5.82-.26.41.11.34.32.35ZM27.41,38.59A2.53,2.53,0,0,0,24.82,36a2.6,2.6,0,0,0-2.65,2.62,2.71,2.71,0,0,0,2.69,2.63A2.62,2.62,0,0,0,27.41,38.59Zm-6.54,0a2.6,2.6,0,0,0-5.19,0,2.6,2.6,0,1,0,5.19,0Z"/><path class="cls-4" d="M29.18,42.31a2.78,2.78,0,0,1-.3.88,1,1,0,0,0-.42.83s0,.07-.05.08c-.19,0-.25.13-.21.31s0,.07-.05.08a.56.56,0,0,0-.48.54,1,1,0,0,1-.48.39c-.18,0-.29,0-.31.22s0,0-.07,0-.29,0-.32.19l-.3.27c-.23.11-.57-.13-.73.22l-.5.16c-.21-.18-.41,0-.6,0a13.91,13.91,0,0,1-3.15.37,16.35,16.35,0,0,1-3.42-.23c-.36-.07-.39,0-.24.36a21.92,21.92,0,0,0,5.22,6.5c-.15.23-.34.15-.5.15H19.06a3.56,3.56,0,0,1-3.71-3.41c-.1-1.39,0-2.78,0-4.18,0-.46.23-.39.53-.3a17.57,17.57,0,0,0,6.61.61,10,10,0,0,0,3.86-1.1,4.58,4.58,0,0,0,2.14-2.54,18,18,0,0,0,.75-7.67,19.34,19.34,0,0,0-.74-4.06c-.39.52-.69.94-1,1.36a2.62,2.62,0,0,1-2.52,1.07c-1.3-.16-2.6-.23-3.9-.31a8.66,8.66,0,0,0-3.42.48c-.31.11-.49.1-.66-.21a4.55,4.55,0,0,0-1.27-1.35.89.89,0,0,1-.37-.76c0-2.92,0-5.83,0-8.74a3.66,3.66,0,0,1,3.93-3.88H46.61a3.62,3.62,0,0,1,3.45,1.91.23.23,0,0,0,.16.34.88.88,0,0,1,.17.5c-.16.13-.09.21.06.27l.06.5c-.19.2-.11.45-.1.68a1,1,0,0,1-.28.8l-.25,0q-.26-.24-.39.09l-.38,0c-.21-.15-.39-.16-.52.1l-.5,0c-.2-.15-.39-.18-.53.07l-.89.06a1.08,1.08,0,0,0-1.16.08l-1.4,0a1.75,1.75,0,0,0-1.56.09l-.63,0a.91.91,0,0,0-.29-.1,40.32,40.32,0,0,0-5.27.34c-.29,0-.66-.11-.88.22l-.38,0c-.2-.15-.38-.15-.52.09l-.5.05c-.21-.16-.4-.16-.52.1l-.38,0c-.2-.15-.39-.17-.53.09l-.5.05c-.2-.16-.39-.18-.52.09l-.37,0c-.18-.17-.31-.15-.4.08l-.25,0a6.42,6.42,0,0,0-3.1.71l-.24.05c-.15-.15-.22-.06-.27.09l-.81.26a1.21,1.21,0,0,0-1.11.55.06.06,0,0,1-.08.05.23.23,0,0,0-.3.23l-.64.65c-.19,0-.26.1-.23.29l-.17.22c-.19,0-.25.13-.21.31l-.19.32c-.19.05-.23.17-.17.34l-.22.43a.45.45,0,0,0-.28.6l-.14.3a.49.49,0,0,0-.27.59l-.34,1a.12.12,0,0,0,0,.21c.06.06.14.06.19,0l1,.08a.33.33,0,0,0,.51.06l1.16.08a1.12,1.12,0,0,0,1.16,0,3.88,3.88,0,0,0,1.56-1.39c.23,0,.26-.19.25-.38h0a.47.47,0,0,0,.34-.56.06.06,0,0,1,0-.08.46.46,0,0,0,.33-.56h0l.32.16.34,1.05c-.16.14-.07.21.08.27l.05.24a2.75,2.75,0,0,0,.35,1.68l0,.25a3.85,3.85,0,0,0,.21,2.07l0,.63a4.53,4.53,0,0,0,0,2l0,.63A25.37,25.37,0,0,0,29.18,42.31Z"/><path class="cls-5" d="M50.54,39.4V49.67c0,2.6-1.47,4.07-4,4.07H44.94c-.28,0-.38-.12-.29-.4a22.7,22.7,0,0,1,2.53-6,16,16,0,0,0,1.89-3.42,4.19,4.19,0,0,0-.79-4.77,8.19,8.19,0,0,1-2-4.89,6.67,6.67,0,0,1,.07-2.67,3.34,3.34,0,0,1,1.24-1.75A23.3,23.3,0,0,1,50,28.16c.14-.08.28-.26.45-.19s.12.34.12.51Z"/><path class="cls-6" d="M34.15,53.74H29.27c-.21,0-.58.06-.32-.35,1.32-2.13,2.59-4.3,4.67-5.82a5.92,5.92,0,0,1,3.65-1.39A4,4,0,0,1,41.16,49a4.09,4.09,0,0,1-1.59,4.6,1,1,0,0,1-.67.16Z"/><path class="cls-7" d="M27.41,38.59a2.62,2.62,0,0,1-2.55,2.66,2.71,2.71,0,0,1-2.69-2.63A2.6,2.6,0,0,1,24.82,36,2.53,2.53,0,0,1,27.41,38.59Z"/><path class="cls-8" d="M20.87,38.61a2.6,2.6,0,1,1-5.19,0,2.6,2.6,0,0,1,5.19,0Z"/><path class="cls-9" d="M25.46,46.37c.16-.35.5-.11.73-.22A15.25,15.25,0,0,1,25,51.38a11.68,11.68,0,0,1-.94,2c-.1.16-.18.42-.41.3s-.05-.34,0-.5a25,25,0,0,0,1.91-6C25.64,47,25.84,46.61,25.46,46.37Zm.48.62c0-.2.11-.34-.08-.51C25.89,46.67,25.8,46.81,25.94,47Z"/><path class="cls-9" d="M17.55,47.08c-.15-.38-.12-.43.24-.36a16.35,16.35,0,0,0,3.42.23,13.91,13.91,0,0,0,3.15-.37c.19,0,.39-.23.6,0a9.81,9.81,0,0,1-3.63.63,16.32,16.32,0,0,1-3.2-.17C17.93,47,17.7,46.84,17.55,47.08Z"/><path class="cls-9" d="M35.48,24.89c.22-.33.59-.18.88-.22a40.32,40.32,0,0,1,5.27-.34.91.91,0,0,1,.29.1c-1.66.12-3.32.25-5,.36A5.47,5.47,0,0,1,35.48,24.89Z"/><path class="cls-9" d="M29.18,42.31A25.37,25.37,0,0,1,29.76,39,8.06,8.06,0,0,1,29.18,42.31Z"/><path class="cls-9" d="M27.51,26.3a6.42,6.42,0,0,1,3.1-.71Z"/><path class="cls-9" d="M29.81,38.32a4.53,4.53,0,0,1,0-2A4.84,4.84,0,0,1,29.81,38.32Z"/><path class="cls-9" d="M29.78,35.65a3.85,3.85,0,0,1-.21-2.07A5.54,5.54,0,0,1,29.78,35.65Z"/><path class="cls-9" d="M50.13,23.75a1,1,0,0,0,.28-.8c0-.23-.09-.48.1-.68a2.94,2.94,0,0,1,.06,1.18C50.56,23.71,50.39,23.82,50.13,23.75Z"/><path class="cls-9" d="M29.53,33.33a2.75,2.75,0,0,1-.35-1.68A4.05,4.05,0,0,1,29.53,33.33Z"/><path class="cls-9" d="M42.55,24.4a1.75,1.75,0,0,1,1.56-.09A4.56,4.56,0,0,1,42.55,24.4Z"/><path class="cls-9" d="M45.51,24.26a1.08,1.08,0,0,1,1.16-.08A2.29,2.29,0,0,1,45.51,24.26Z"/><path class="cls-9" d="M25.86,32.92a1.12,1.12,0,0,1-1.16,0A4.1,4.1,0,0,1,25.86,32.92Z"/><path class="cls-9" d="M25.08,27.25a1.21,1.21,0,0,1,1.11-.55A4.42,4.42,0,0,1,25.08,27.25Z"/><path class="cls-9" d="M28.46,44a1,1,0,0,1,.42-.83A1.26,1.26,0,0,1,28.46,44Z"/><path class="cls-9" d="M27.67,45a.56.56,0,0,1,.48-.54A.77.77,0,0,1,27.67,45Z"/><path class="cls-9" d="M34.58,25c.14-.24.32-.24.52-.09A.51.51,0,0,1,34.58,25Z"/><path class="cls-9" d="M48.59,24c.13-.26.31-.25.52-.1A.6.6,0,0,1,48.59,24Z"/><path class="cls-9" d="M47.56,24.12c.14-.25.33-.22.53-.07A.62.62,0,0,1,47.56,24.12Z"/><path class="cls-9" d="M33.56,25.17c.12-.26.31-.26.52-.1A.61.61,0,0,1,33.56,25.17Z"/><path class="cls-9" d="M32.65,25.29c.14-.26.33-.24.53-.09A.62.62,0,0,1,32.65,25.29Z"/><path class="cls-9" d="M31.63,25.43c.13-.27.32-.25.52-.09A.6.6,0,0,1,31.63,25.43Z"/><path class="cls-9" d="M28.39,29.94a.46.46,0,0,1-.33.56A.73.73,0,0,1,28.39,29.94Z"/><path class="cls-9" d="M28,30.58a.47.47,0,0,1-.34.56A.81.81,0,0,1,28,30.58Z"/><path class="cls-9" d="M22.59,30.69a.45.45,0,0,1,.28-.6A.89.89,0,0,1,22.59,30.69Z"/><path class="cls-9" d="M23.54,32.84a.33.33,0,0,1-.51-.06A.48.48,0,0,1,23.54,32.84Z"/><path class="cls-9" d="M22.18,31.58a.49.49,0,0,1,.27-.59A.75.75,0,0,1,22.18,31.58Z"/><path class="cls-9" d="M30.86,25.55c.09-.23.22-.25.4-.08A.32.32,0,0,1,30.86,25.55Z"/><path class="cls-9" d="M49.49,23.87q.13-.33.39-.09A.34.34,0,0,1,49.49,23.87Z"/><path class="cls-9" d="M28.71,30.09l-.32-.16c0-.11.06-.22.2-.15A.26.26,0,0,1,28.71,30.09Z"/><path class="cls-9" d="M27.67,31.15c0,.19,0,.35-.25.38A.45.45,0,0,1,27.67,31.15Z"/><path class="cls-9" d="M29.13,31.41c-.15-.06-.24-.13-.08-.27A.2.2,0,0,1,29.13,31.41Z"/><path class="cls-9" d="M50.45,21.77c-.15-.06-.22-.14-.06-.27A.19.19,0,0,1,50.45,21.77Z"/><path class="cls-9" d="M22,32.7c-.05.1-.13.1-.19,0a.12.12,0,0,1,0-.21Z"/><path class="cls-9" d="M28.2,44.41c0-.18,0-.28.21-.31A.28.28,0,0,1,28.2,44.41Z"/><path class="cls-9" d="M50.22,21a.23.23,0,0,1-.16-.34A.29.29,0,0,1,50.22,21Z"/><path class="cls-9" d="M24.7,27.53a.23.23,0,0,1,.3-.23A.32.32,0,0,1,24.7,27.53Z"/><path class="cls-9" d="M26.49,45.88c0-.19.15-.24.32-.19A.29.29,0,0,1,26.49,45.88Z"/><path class="cls-9" d="M23.45,29c0-.18,0-.29.21-.31A.31.31,0,0,1,23.45,29Z"/><path class="cls-9" d="M23.83,28.47c0-.19,0-.29.23-.29A.32.32,0,0,1,23.83,28.47Z"/><path class="cls-9" d="M27,26.44c.05-.15.12-.24.27-.09A.21.21,0,0,1,27,26.44Z"/><path class="cls-9" d="M23.09,29.66c-.06-.17,0-.29.17-.34A.35.35,0,0,1,23.09,29.66Z"/><path class="cls-9" d="M26.88,45.64c0-.19.13-.25.31-.22A.28.28,0,0,1,26.88,45.64Z"/><path class="cls-4" d="M25.94,47c-.14-.18-.05-.32-.08-.51C26.05,46.65,26,46.79,25.94,47Z"/></g></g></g></svg>