<svg xmlns="http://www.w3.org/2000/svg" viewBox="0 0 70 70"><defs><style>.cls-1{opacity:0.95;}.cls-2{fill:#fff;}</style></defs><g id="Layer_2" data-name="Layer 2"><g id="Layer_1-2" data-name="Layer 1"><g class="cls-1"><path class="cls-2" d="M70,37.71c-.07.4-.16.8-.2,1.21a31.88,31.88,0,0,1-2.11,8.71,32.27,32.27,0,0,1-4.51,8.17c-1,1.29-2,2.55-3.14,3.74A25.8,25.8,0,0,1,57.29,62c-1.12.89-2.27,1.75-3.47,2.55a25.66,25.66,0,0,1-5.41,2.79c-1.78.64-3.57,1.28-5.4,1.77-1.3.35-2.66.47-4,.69l-1.31.2H32.29c-.4-.07-.8-.16-1.21-.2a31.88,31.88,0,0,1-8.71-2.11,32.27,32.27,0,0,1-8.17-4.51c-1.29-1-2.55-2-3.74-3.14A25.8,25.8,0,0,1,8,57.29C7.11,56.17,6.25,55,5.45,53.82a25.66,25.66,0,0,1-2.79-5.41C2,46.63,1.38,44.84.89,43,.54,41.71.42,40.35.2,39c-.07-.44-.13-.88-.2-1.31V32.29c.07-.4.16-.8.2-1.21a31.88,31.88,0,0,1,2.11-8.71A32.27,32.27,0,0,1,6.82,14.2c1-1.29,2-2.55,3.14-3.74A25.8,25.8,0,0,1,12.71,8c1.12-.89,2.27-1.75,3.47-2.55a25.66,25.66,0,0,1,5.41-2.79C23.37,2,25.16,1.38,27,.89c1.3-.35,2.66-.47,4-.69L32.29,0h5.42c.4.07.8.16,1.21.2a31.88,31.88,0,0,1,8.71,2.11A32.27,32.27,0,0,1,55.8,6.82c1.29,1,2.55,2,3.74,3.14A25.8,25.8,0,0,1,62,12.71c.89,1.12,1.75,2.27,2.55,3.47a25.66,25.66,0,0,1,2.79,5.41c.64,1.78,1.28,3.57,1.77,5.4.35,1.3.47,2.66.69,4,.07.44.13.88.2,1.31Zm-.65-2.32a34.11,34.11,0,1,0-35.26,33.7A34.06,34.06,0,0,0,69.35,35.39Z"/><path d="M69.35,35.39A34.12,34.12,0,1,1,35.14,1.17,34,34,0,0,1,69.35,35.39ZM2.62,35.07a32.92,32.92,0,0,0,12,25,32.6,32.6,0,0,0,20.83,7.28,31.2,31.2,0,0,0,9.15-1.41A31.61,31.61,0,0,0,60.19,55.77a31.64,31.64,0,0,0,7.11-26.9,31.35,31.35,0,0,0-8-15.75A31.57,31.57,0,0,0,41.46,3.18a30.4,30.4,0,0,0-10.72-.3,35.3,35.3,0,0,0-9,2.58A44.24,44.24,0,0,0,16,8.88a24.67,24.67,0,0,0-4.24,3.66,37,37,0,0,0-5.13,7,26.5,26.5,0,0,0-2.17,4.87A31.27,31.27,0,0,0,2.62,35.07Z"/><path class="cls-2" d="M2.62,35.07a31.27,31.27,0,0,1,1.8-10.62,26.5,26.5,0,0,1,2.17-4.87,37,37,0,0,1,5.13-7A24.67,24.67,0,0,1,16,8.88a44.24,44.24,0,0,1,5.79-3.42,35.3,35.3,0,0,1,9-2.58,30.4,30.4,0,0,1,10.72.3,31.57,31.57,0,0,1,17.82,9.94,31.35,31.35,0,0,1,8,15.75,31.64,31.64,0,0,1-7.11,26.9A31.61,31.61,0,0,1,44.63,65.91a31.2,31.2,0,0,1-9.15,1.41A32.6,32.6,0,0,1,14.65,60a32.92,32.92,0,0,1-12-25Zm35-16.13A38.08,38.08,0,0,1,36,14.56,37.94,37.94,0,0,1,35.42,10l-.13,0a31.92,31.92,0,0,0-2.66,8.87c-1-2.06-2.51-3.36-5-3.32.14.38.25.7.38,1a4.4,4.4,0,0,1,0,3.62,10.38,10.38,0,0,0-.63,1.88,5.52,5.52,0,0,0-.16,2.05c.31,1.71,1.59,2.84,2.71,4h.13a8.76,8.76,0,0,1,2.14-3.3,4.25,4.25,0,0,0,.63-1.47,3.8,3.8,0,0,0,.16-.75,6.39,6.39,0,0,1,2.2,3.51,2.24,2.24,0,0,0,.39-.77,9.54,9.54,0,0,0,.17-3.65c0-.23,0-.46,0-.7a9.94,9.94,0,0,1,1.75,6.41c1.33-.54,1.82-1.68,2.53-2.69a5.68,5.68,0,0,1,.35,1.78,11.09,11.09,0,0,1-.34,1.84,2.35,2.35,0,0,0,1.63-1,8.06,8.06,0,0,0,1.42-3.51,12.4,12.4,0,0,0-1.38-7.9,2.2,2.2,0,0,0-.23-.29A6.8,6.8,0,0,1,37.58,18.94Zm2.08,44.67L55,38.09a2.91,2.91,0,0,0-.31,0l-7.15,0a.56.56,0,0,0-.44.18c-.45.69-.87,1.4-1.37,2.24h4.89l.1.16c-3.67,6.06-7.33,12.12-11,18.23-.15-.24-.25-.39-.34-.55-1.55-2.68-3.11-5.35-4.64-8s-3-5.44-4.57-8.15c-.11-.2-.34-.46-.53-.47-.8,0-1.61,0-2.48,0ZM41.16,38l-25.61-.3L30.18,63.5c1.28-2.13,2.55-4.23,3.8-6.33.07-.11.13-.28.08-.37-.4-.75-.83-1.49-1.26-2.27l-2.53,4.16c-.13-.19-.22-.3-.28-.41Q25.07,49.63,20.16,41a6.86,6.86,0,0,1-.39-.93h.64l5.67.07c4.35.06,8.71.14,13.07.18A1.06,1.06,0,0,0,39.9,40C40.35,39.35,40.72,38.67,41.16,38ZM37.24,51.78,50.35,30l-30-.37a2.22,2.22,0,0,0,.15.35c1.11,2,2.2,4,3.33,6a.93.93,0,0,0,.62.45c.81.06,1.62,0,2.52,0L24.43,32l21.73.28c-.15.29-.23.46-.33.62l-2.95,4.89c-2.2,3.66-4.39,7.33-6.6,11a1,1,0,0,0,0,1.17C36.61,50.52,36.9,51.13,37.24,51.78Z"/><path d="M37.58,18.94a6.8,6.8,0,0,0,3.92-3.29,2.2,2.2,0,0,1,.23.29,12.4,12.4,0,0,1,1.38,7.9,8.06,8.06,0,0,1-1.42,3.51,2.35,2.35,0,0,1-1.63,1,11.09,11.09,0,0,0,.34-1.84,5.68,5.68,0,0,0-.35-1.78c-.71,1-1.2,2.15-2.53,2.69A9.94,9.94,0,0,0,35.77,21c0,.24,0,.47,0,.7a9.54,9.54,0,0,1-.17,3.65,2.24,2.24,0,0,1-.39.77,6.39,6.39,0,0,0-2.2-3.51,3.8,3.8,0,0,1-.16.75,4.25,4.25,0,0,1-.63,1.47,8.76,8.76,0,0,0-2.14,3.3H30c-1.12-1.21-2.4-2.34-2.71-4a5.52,5.52,0,0,1,.16-2.05,10.38,10.38,0,0,1,.63-1.88,4.4,4.4,0,0,0,0-3.62c-.13-.31-.24-.63-.38-1,2.47,0,4,1.26,5,3.32A31.92,31.92,0,0,1,35.29,10l.13,0A37.94,37.94,0,0,0,36,14.56,38.08,38.08,0,0,0,37.58,18.94Z"/><path d="M39.66,63.61l-12.49-22c.87,0,1.68,0,2.48,0,.19,0,.42.27.53.47,1.53,2.71,3,5.44,4.57,8.15s3.09,5.36,4.64,8c.09.16.19.31.34.55,3.69-6.11,7.35-12.17,11-18.23l-.1-.16H45.76c.5-.84.92-1.55,1.37-2.24a.56.56,0,0,1,.44-.18l7.15,0a2.91,2.91,0,0,1,.31,0Z"/><path d="M41.16,38c-.44.72-.81,1.4-1.26,2a1.06,1.06,0,0,1-.75.32c-4.36,0-8.72-.12-13.07-.18l-5.67-.07h-.64a6.86,6.86,0,0,0,.39.93q4.9,8.66,9.83,17.3c.06.11.15.22.28.41l2.53-4.16c.43.78.86,1.52,1.26,2.27,0,.09,0,.26-.08.37-1.25,2.1-2.52,4.2-3.8,6.33L15.55,37.65ZM30.33,61.65a2.78,2.78,0,0,0,.23-.31c.85-1.35,1.7-2.69,2.53-4.06.48-.78.45-1-.17-1.79-.11.16-.23.3-.32.46l-2.78,4.51c-.49.8-.47.85.43,1.19Z"/><path d="M37.24,51.78c-.34-.65-.63-1.26-1-1.85a1,1,0,0,1,0-1.17c2.21-3.65,4.4-7.32,6.6-11l2.95-4.89c.1-.16.18-.33.33-.62L24.43,32,27,36.38c-.9,0-1.71,0-2.52,0a.93.93,0,0,1-.62-.45c-1.13-2-2.22-4-3.33-6a2.22,2.22,0,0,1-.15-.35l30,.37Zm-16-21.56a7.46,7.46,0,0,0,.64.84.94.94,0,0,0,.55.28c1.36.06,2.72.1,4.08.11,2.76,0,5.52,0,8.28.06l12,.1.53,0a2.22,2.22,0,0,1-.18.33q-5,8.31-10,16.62a3.73,3.73,0,0,0-.32.63,1,1,0,0,0,.43,1.25c1.43-2,11.81-19.44,11.79-19.89Z"/><path class="cls-2" d="M30.33,61.65h-.08c-.9-.34-.92-.39-.43-1.19L32.6,56c.09-.16.21-.3.32-.46.62.79.65,1,.17,1.79-.83,1.37-1.68,2.71-2.53,4.06A2.78,2.78,0,0,1,30.33,61.65Z"/><path class="cls-2" d="M21.2,30.22l27.85.35c0,.45-10.36,17.93-11.79,19.89a1,1,0,0,1-.43-1.25,3.73,3.73,0,0,1,.32-.63q5-8.31,10-16.62a2.22,2.22,0,0,0,.18-.33l-.53,0-12-.1c-2.76,0-5.52,0-8.28-.06-1.36,0-2.72-.05-4.08-.11a.94.94,0,0,1-.55-.28A7.46,7.46,0,0,1,21.2,30.22Z"/></g></g></g></svg>