<svg xmlns="http://www.w3.org/2000/svg" viewBox="0 0 71 71"><defs><style>.cls-1{opacity:0.95;}.cls-2{fill:#fefefe;stroke:#000;stroke-miterlimit:10;}.cls-3{fill:#b8cad1;}.cls-4{fill:#88393d;}.cls-5{fill:#b39156;}.cls-6{fill:#224b60;}</style></defs><g id="Layer_2" data-name="Layer 2"><g id="Layer_1-2" data-name="Layer 1"><g class="cls-1"><circle class="cls-2" cx="35.5" cy="35.5" r="35"/><path class="cls-3" d="M62.83,38.35c-.26.62-.51,1.12-1.13,1.32A49.24,49.24,0,0,1,56.38,41c-.26.06-.38,0-.36-.3,0-.51.06-.57.53-.7l5.92-1.56Z"/><path class="cls-3" d="M64.17,34.84c0,.34-.09.59-.38.69-2.1.7-4.21,1.36-6.37,1.85-.14,0-.36.2-.47,0s.2-.54.41-.61L59.69,36l4.19-1.29C64.06,34.68,64.21,34.64,64.17,34.84Z"/><path class="cls-3" d="M60,42.17a1.4,1.4,0,0,1-1.06,1,18.16,18.16,0,0,1-2.75.47c-.26,0-.52.05-.79.09s-.21,0-.19-.21.12-.5.49-.56c1.39-.23,2.77-.51,4.15-.77A.74.74,0,0,1,60,42.17Z"/><path d="M5.79,40.13A22.54,22.54,0,0,1,14,34.84a5.07,5.07,0,0,0,1.81-1.08,17.3,17.3,0,0,1,3.22-2.36,10.78,10.78,0,0,1,6-1.23c.27,0,.36,0,.33-.32-.15-1.83-.25-3.66-.26-5.5a5.16,5.16,0,0,1,1-3.21,3.41,3.41,0,0,1,.82-.79,1.56,1.56,0,0,0,.6-.7,10.91,10.91,0,0,1,3.32-3.76A8.16,8.16,0,0,1,32.19,15a1.24,1.24,0,0,1,1.26,0,12.11,12.11,0,0,1,5,5.1,5.64,5.64,0,0,1,.5,1.7,14.55,14.55,0,0,1,.1,2.8,33.17,33.17,0,0,1-.7,5.16.55.55,0,0,0,0,.31,5.68,5.68,0,0,0,1.73,2.35c.1.09.2,0,.3,0a39.4,39.4,0,0,1,5.3-1,4.07,4.07,0,0,1,3.16.79,13.14,13.14,0,0,1,1.84,1.65,1.42,1.42,0,0,0,1,.48A12,12,0,0,0,55.6,34,76.67,76.67,0,0,0,63,31.87l2.22-.72a10.27,10.27,0,0,1-.14,2.42,18.89,18.89,0,0,1-5,9.79,11.79,11.79,0,0,1-4.89,3,26.77,26.77,0,0,1-6.38,1.35,46.58,46.58,0,0,1-7.28.12,5.9,5.9,0,0,1-.95-.07c-.32-.07-.35.09-.38.31a27.69,27.69,0,0,1-.84,3.82,12.29,12.29,0,0,1-1.16,2.84,4.18,4.18,0,0,1-.82,1,1.78,1.78,0,0,1-.81.41.63.63,0,0,1-.78-.34,4.9,4.9,0,0,1-.51-1.26,15.93,15.93,0,0,0-2.52-5.17,27.46,27.46,0,0,0-3.13-3.25c-1-.91-2-1.8-2.9-2.77a11.11,11.11,0,0,1-2.64-5.07C24,38.07,24,38,23.75,38c-2.15-.17-4.31-.12-6.46-.1a1.31,1.31,0,0,0-.45.13,21.1,21.1,0,0,1-5.28,1.79,30.62,30.62,0,0,1-4.88.31Zm1.52-.58a22.61,22.61,0,0,0,4.41-.68,24.64,24.64,0,0,0,5.32-2,2,2,0,0,0,.64-.4.51.51,0,0,0-.13-.08,4.14,4.14,0,0,1-1.65-1c-.09-.1-.17-.08-.28,0a26.06,26.06,0,0,0-3.41,1.31,36.74,36.74,0,0,0-3.32,1.93,14.88,14.88,0,0,0-1.59,1l-.08,0,0,0Zm50.45,4.37L56.69,44a21,21,0,0,1-2.1.16c-.09,0-.22,0-.22-.14a2,2,0,0,1,1-1.27c.72-.18,1.45-.33,2.17-.5a11.06,11.06,0,0,0,2.13-.61,1.7,1.7,0,0,0,.93-1c.06-.19,0-.27-.2-.22l-3,.59-2,.34c-.11,0-.34.07-.25-.17.23-.6.48-1.22,1.19-1.43,1.14-.34,2.29-.66,3.44-1a9.33,9.33,0,0,0,2-.75A1.78,1.78,0,0,0,62.71,37c.08-.3,0-.33-.26-.25l-4.15,1c-.64.15-1.28.28-1.93.4-.09,0-.29.14-.3-.12a2.2,2.2,0,0,1,1-1.58c.7-.25,1.4-.48,2.11-.71l4.21-1.33a.46.46,0,0,0,.36-.44c.07-.47.05-.94.09-1.4,0-.27,0-.32-.31-.23-1.54.56-3.09,1.1-4.66,1.58a18.39,18.39,0,0,1-3.43.81c-1.57.16-3.15.2-4.73.23a.31.31,0,0,0-.36.26,6.68,6.68,0,0,1-.84,1.77,12.34,12.34,0,0,1-5,4.36,19.6,19.6,0,0,1-7.27,2c-.13,0-.3,0-.19.22a6.34,6.34,0,0,0,1.26,2.08c.52.51,1,1,1.53,1.57a.54.54,0,0,0,.44.2c.62,0,1.23.07,1.85.07a67.71,67.71,0,0,0,7.12-.31,17.44,17.44,0,0,0,6.24-1.72A8.15,8.15,0,0,0,57.76,43.92ZM27,20.88a1.31,1.31,0,0,0-.36.34,5.31,5.31,0,0,0-1.21,3.56c0,1.51.21,3,.31,4.5a.86.86,0,0,0,.7.87A5.64,5.64,0,0,1,29.3,32c.25.35.51.68.73,1a.28.28,0,0,0,.26.18,26.9,26.9,0,0,0,7.86-.2c.54-.12,1.09-.2,1.69-.32a28.32,28.32,0,0,1-2.06-2,1.43,1.43,0,0,1-.38-1.82,0,0,0,0,1,0,0,12.82,12.82,0,0,0,.71-4.59A7.23,7.23,0,0,0,38,23.08a11.87,11.87,0,0,1-1.64.81c-.21.07-.48.24-.62,0s.13-.41.28-.57a12.11,12.11,0,0,1,1.81-1.45.46.46,0,0,0,.19-.36,2.83,2.83,0,0,0-.6-1.77c-.1-.17-.17-.19-.33-.06a19.81,19.81,0,0,1-2.18,1.47c-.19.1-.39.18-.58.26a.17.17,0,0,1-.18,0,.14.14,0,0,1,0-.18,3.43,3.43,0,0,1,.32-.43,18.8,18.8,0,0,1,2.1-2c.18-.16.18-.25,0-.43a5,5,0,0,0-1.07-1.17c-.15-.11-.24-.12-.38,0a22,22,0,0,1-2,1.86,2.65,2.65,0,0,1-.69.45c-.09,0-.19.08-.26,0s0-.16,0-.24a3.52,3.52,0,0,1,.64-.9c.51-.61,1.07-1.17,1.64-1.73.06-.06.22-.11.09-.25a3.86,3.86,0,0,0-1.8-1.14.42.42,0,0,0-.27.06,8.19,8.19,0,0,0-4.16,4c-.38.82-.75,1.64-1.08,2.55Zm1.36,16.24a23.5,23.5,0,0,0-3.77.32c-.19,0-.2.09-.15.25.14.42.25.85.4,1.27a12.78,12.78,0,0,0,2.8,4.73c1,1.05,2.1,2,3.17,3A16.63,16.63,0,0,1,34.7,51.8c.48,1,.86,2,1.27,3,.15.37.3.43.66.26a1.27,1.27,0,0,0,.62-.69,5.19,5.19,0,0,0,.28-2.7,33.64,33.64,0,0,0-.74-4A22,22,0,0,0,35.68,44a23.84,23.84,0,0,0-2.43-4.06,18.5,18.5,0,0,0-1.9-2.5.57.57,0,0,0-.38-.2C30.12,37.16,29.27,37.12,28.34,37.12Zm4.55-.74c.27.32.53.63.78.95a27,27,0,0,1,3.13,5.34c.09.18.17.28.4.25a22.59,22.59,0,0,0,5.6-1.37,13.07,13.07,0,0,0,4.81-2.95,10.7,10.7,0,0,0,2.32-3.4c.15-.37.13-.38-.25-.43-.87-.13-1.75-.19-2.63-.24-2.29-.14-4.59-.27-6.9-.29a8.59,8.59,0,0,0-1.52.06,19.45,19.45,0,0,0-3.42,1.09C34.44,35.69,33.66,36,32.89,36.38Zm-9.58-5.69a6.87,6.87,0,0,0-1.36.1,10.13,10.13,0,0,0-5.73,3.48c-.13.15-.12.23,0,.36a7,7,0,0,0,2.32,1.63,3.77,3.77,0,0,0,4.24-.6,8.93,8.93,0,0,1,4-2,15.58,15.58,0,0,1,2-.32c.23,0,.3-.09.12-.28s-.29-.33-.46-.48A7.46,7.46,0,0,0,23.31,30.69Zm1,6.12a.49.49,0,0,0,.37,0c.9-.12,1.8-.25,2.7-.34,1.2-.1,2.4-.07,3.6-.06a1.13,1.13,0,0,0,.54-.13,22.41,22.41,0,0,1,4-1.69,16.09,16.09,0,0,1,3.83-.72c1,0,2.09,0,3.14,0,1.24,0,2.48.06,3.72.14s2.41.13,3.61.26c.13,0,.32.09.39,0s-.1-.26-.2-.36A15.7,15.7,0,0,0,47.49,32a.58.58,0,0,0-.33-.08,16.6,16.6,0,0,0-3.85.37c-1.84.35-3.62.94-5.48,1.2a32.32,32.32,0,0,1-4.5.32c-1.1,0-2.2,0-3.3-.11a.63.63,0,0,0-.56.22,8.34,8.34,0,0,1-3.68,2.34C25.28,36.41,24.78,36.62,24.28,36.81ZM38,53.36a1.26,1.26,0,0,0,.28-.48,24.12,24.12,0,0,0,1.28-5.1.57.57,0,0,0-.18-.51,10.61,10.61,0,0,1-2.3-3.17,32.78,32.78,0,0,0-4.2-7c-.42-.51-.4-.52-1-.16-.19.12-.21.2-.07.39.69.87,1.32,1.79,1.95,2.71a19.38,19.38,0,0,1,3.07,6.51,50.62,50.62,0,0,1,1,5.74A3.55,3.55,0,0,0,38,53.36Zm24.8-15-.36.09L56.55,40c-.47.13-.5.19-.53.7,0,.28.1.36.36.3a49.24,49.24,0,0,0,5.32-1.33C62.32,39.47,62.57,39,62.83,38.35Zm1.34-3.51c0-.2-.11-.16-.29-.11L59.69,36l-2.33.71c-.21.07-.49.45-.41.61s.33.07.47,0c2.16-.49,4.27-1.15,6.37-1.85C64.08,35.43,64.13,35.18,64.17,34.84ZM22,36.65l.1,0a12.25,12.25,0,0,0,3.74-.79.2.2,0,0,0,.15-.18,8.27,8.27,0,0,0,.07-1.11c0-.31-.11-.36-.39-.25a13.89,13.89,0,0,0-2.79,1.57A4,4,0,0,0,22,36.65Zm38,5.52a.74.74,0,0,0-.15,0c-1.38.26-2.76.54-4.15.77-.37.06-.44.27-.49.56s0,.24.19.21.53-.05.79-.09a18.16,18.16,0,0,0,2.75-.47A1.4,1.4,0,0,0,60,42.17ZM26.46,34.9c0,.19-.09.53.09.64s.4-.17.6-.28l.38-.23A6.82,6.82,0,0,0,28.9,34c.06-.07.16-.15.1-.25s-.15,0-.23,0a10.58,10.58,0,0,0-1.59.28C26.46,34.12,26.47,34.13,26.46,34.9Zm-2.32,2s0,0-.05,0l-.05,0a.09.09,0,0,0,.05,0Z"/><path class="cls-3" d="M57.76,43.92a8.15,8.15,0,0,1-2.17,1.49,17.44,17.44,0,0,1-6.24,1.72,67.71,67.71,0,0,1-7.12.31c-.62,0-1.23,0-1.85-.07a.54.54,0,0,1-.44-.2c-.51-.53-1-1.06-1.53-1.57a6.34,6.34,0,0,1-1.26-2.08c-.11-.25.06-.2.19-.22a19.6,19.6,0,0,0,7.27-2,12.34,12.34,0,0,0,5-4.36,6.68,6.68,0,0,0,.84-1.77.31.31,0,0,1,.36-.26c1.58,0,3.16-.07,4.73-.23a18.39,18.39,0,0,0,3.43-.81c1.57-.48,3.12-1,4.66-1.58.26-.09.33,0,.31.23,0,.46,0,.93-.09,1.4a.46.46,0,0,1-.36.44l-4.21,1.33c-.71.23-1.41.46-2.11.71a2.2,2.2,0,0,0-1,1.58c0,.26.21.13.3.12.65-.12,1.29-.25,1.93-.4l4.15-1c.31-.08.34-.05.26.25A1.78,1.78,0,0,1,61.82,38a9.33,9.33,0,0,1-2,.75c-1.15.35-2.3.67-3.44,1-.71.21-1,.83-1.19,1.43-.09.24.14.19.25.17l2-.34,3-.59c.23-.05.26,0,.2.22a1.7,1.7,0,0,1-.93,1,11.06,11.06,0,0,1-2.13.61c-.72.17-1.45.32-2.17.5a2,2,0,0,0-1,1.27c0,.19.13.14.22.14a21,21,0,0,0,2.1-.16Z"/><path class="cls-3" d="M27,20.88l.34,1c.33-.91.7-1.73,1.08-2.55a8.19,8.19,0,0,1,4.16-4,.42.42,0,0,1,.27-.06,3.86,3.86,0,0,1,1.8,1.14c.13.14,0,.19-.09.25-.57.56-1.13,1.12-1.64,1.73a3.52,3.52,0,0,0-.64.9c0,.08-.08.17,0,.24s.17.06.26,0a2.65,2.65,0,0,0,.69-.45,22,22,0,0,0,2-1.86c.14-.15.23-.14.38,0a5,5,0,0,1,1.07,1.17c.13.18.13.27,0,.43a18.8,18.8,0,0,0-2.1,2,3.43,3.43,0,0,0-.32.43.14.14,0,0,0,0,.18.17.17,0,0,0,.18,0c.19-.08.39-.16.58-.26a19.81,19.81,0,0,0,2.18-1.47c.16-.13.23-.11.33.06a2.83,2.83,0,0,1,.6,1.77.46.46,0,0,1-.19.36A12.11,12.11,0,0,0,36,23.35c-.15.16-.44.34-.28.57s.41,0,.62,0A11.87,11.87,0,0,0,38,23.08a7.23,7.23,0,0,1,.12,1.12,12.82,12.82,0,0,1-.71,4.59,0,0,0,0,0,0,0,1.43,1.43,0,0,0,.38,1.82,28.32,28.32,0,0,0,2.06,2c-.6.12-1.15.2-1.69.32a26.9,26.9,0,0,1-7.86.2A.28.28,0,0,1,30,33c-.22-.37-.48-.7-.73-1a5.64,5.64,0,0,0-2.88-1.81.86.86,0,0,1-.7-.87c-.1-1.5-.31-3-.31-4.5a5.31,5.31,0,0,1,1.21-3.56A1.31,1.31,0,0,1,27,20.88Z"/><path class="cls-4" d="M28.34,37.12c.93,0,1.78,0,2.63.11a.57.57,0,0,1,.38.2,18.5,18.5,0,0,1,1.9,2.5A23.84,23.84,0,0,1,35.68,44a22,22,0,0,1,1.11,3.74,33.64,33.64,0,0,1,.74,4,5.19,5.19,0,0,1-.28,2.7,1.27,1.27,0,0,1-.62.69c-.36.17-.51.11-.66-.26-.41-1-.79-2-1.27-3a16.63,16.63,0,0,0-3.91-5.13c-1.07-1-2.16-1.93-3.17-3A12.78,12.78,0,0,1,24.82,39c-.15-.42-.26-.85-.4-1.27-.05-.16,0-.23.15-.25A23.5,23.5,0,0,1,28.34,37.12Z"/><path class="cls-5" d="M32.89,36.38c.77-.37,1.55-.69,2.32-1a19.45,19.45,0,0,1,3.42-1.09,8.59,8.59,0,0,1,1.52-.06c2.31,0,4.61.15,6.9.29.88,0,1.76.11,2.63.24.38,0,.4.06.25.43a10.7,10.7,0,0,1-2.32,3.4,13.07,13.07,0,0,1-4.81,2.95,22.59,22.59,0,0,1-5.6,1.37c-.23,0-.31-.07-.4-.25a27,27,0,0,0-3.13-5.34C33.42,37,33.16,36.7,32.89,36.38Z"/><path class="cls-3" d="M23.31,30.69a7.46,7.46,0,0,1,5.21,1.91c.17.15.3.32.46.48s.11.26-.12.28a15.58,15.58,0,0,0-2,.32,8.93,8.93,0,0,0-4,2,3.77,3.77,0,0,1-4.24.6,7,7,0,0,1-2.32-1.63c-.14-.13-.15-.21,0-.36A10.13,10.13,0,0,1,22,30.79,6.87,6.87,0,0,1,23.31,30.69Zm-2.46,3.95a1.45,1.45,0,0,0-1.06.52c-.24.31-.14.59.24.7a1.29,1.29,0,0,0,1.16-.26c.22-.15.4-.36.3-.64S21.13,34.66,20.85,34.64Z"/><path class="cls-6" d="M24.28,36.81c.5-.19,1-.4,1.51-.57a8.34,8.34,0,0,0,3.68-2.34.63.63,0,0,1,.56-.22c1.1.12,2.2.1,3.3.11a32.32,32.32,0,0,0,4.5-.32c1.86-.26,3.64-.85,5.48-1.2a16.6,16.6,0,0,1,3.85-.37.58.58,0,0,1,.33.08A15.7,15.7,0,0,1,50,33.93c.1.1.28.21.2.36s-.26,0-.39,0c-1.2-.13-2.41-.18-3.61-.26s-2.48-.09-3.72-.14c-1,0-2.1-.06-3.14,0a16.09,16.09,0,0,0-3.83.72,22.41,22.41,0,0,0-4,1.69,1.13,1.13,0,0,1-.54.13c-1.2,0-2.4,0-3.6.06-.9.09-1.8.22-2.7.34A.49.49,0,0,1,24.28,36.81Z"/><path class="cls-6" d="M38,53.36a3.55,3.55,0,0,1-.15-1,50.62,50.62,0,0,0-1-5.74,19.38,19.38,0,0,0-3.07-6.51c-.63-.92-1.26-1.84-1.95-2.71-.14-.19-.12-.27.07-.39.57-.36.55-.35,1,.16a32.78,32.78,0,0,1,4.2,7,10.61,10.61,0,0,0,2.3,3.17.57.57,0,0,1,.18.51,24.12,24.12,0,0,1-1.28,5.1A1.26,1.26,0,0,1,38,53.36Z"/><path class="cls-6" d="M7.3,39.54a14.88,14.88,0,0,1,1.59-1,36.74,36.74,0,0,1,3.32-1.93,26.06,26.06,0,0,1,3.41-1.31c.11,0,.19-.05.28,0a4.14,4.14,0,0,0,1.65,1,.51.51,0,0,1,.13.08,2,2,0,0,1-.64.4,24.64,24.64,0,0,1-5.32,2,22.61,22.61,0,0,1-4.41.68Z"/><path class="cls-5" d="M22,36.65a4,4,0,0,1,.88-.72,13.89,13.89,0,0,1,2.79-1.57c.28-.11.37-.06.39.25A8.27,8.27,0,0,1,26,35.72a.2.2,0,0,1-.15.18,12.25,12.25,0,0,1-3.74.79Z"/><path class="cls-5" d="M26.46,34.9c0-.77,0-.78.72-.94a10.58,10.58,0,0,1,1.59-.28c.08,0,.19-.06.23,0s0,.18-.1.25A6.82,6.82,0,0,1,27.53,35l-.38.23c-.2.11-.46.37-.6.28S26.5,35.09,26.46,34.9Z"/><path class="cls-6" d="M24.14,36.91l-.05,0a.09.09,0,0,1-.05,0l.05,0S24.12,36.9,24.14,36.91Z"/><path d="M20.85,34.64c.28,0,.55,0,.64.32s-.08.49-.3.64a1.29,1.29,0,0,1-1.16.26c-.38-.11-.48-.39-.24-.7A1.45,1.45,0,0,1,20.85,34.64Z"/></g></g></g></svg>