<svg xmlns="http://www.w3.org/2000/svg" viewBox="0 0 44 44"><defs><style>.cls-1{fill:#0470c4;}.cls-2{fill:#333;}</style></defs><g id="Layer_2" data-name="Layer 2"><g id="Layer_1-2" data-name="Layer 1"><rect class="cls-1" width="44" height="44" rx="20.37"/><path class="cls-2" d="M15.89,24a4.37,4.37,0,0,0,1.38.88c.77.37,1.17.56,1.21.56a4.88,4.88,0,0,1,.92.63,4.17,4.17,0,0,0,1.1.68q6.7,2.89,7.61,3.39a1.63,1.63,0,0,1,.9,1.53,1.75,1.75,0,0,1-.55,1.12,1.54,1.54,0,0,1-1.13.6,9,9,0,0,1-1.25-.64,65.51,65.51,0,0,0-6.54-3.28,35.7,35.7,0,0,1-4.47-2.33c-2-1.17-3-2-3-2.54a2.87,2.87,0,0,1,.39-1.26A9.82,9.82,0,0,1,15.07,21a2.24,2.24,0,0,0,.35-.29,33.74,33.74,0,0,1,6.31-5.65A28.59,28.59,0,0,0,25,12.4a3.67,3.67,0,0,1,.89-.85,1.56,1.56,0,0,1,.75-.15,1.46,1.46,0,0,1,1,.33,1,1,0,0,1,.41.86q0,1.61-7.51,7.13a14.05,14.05,0,0,0-1.8,1.64C18.12,21.93,17.19,22.83,15.89,24Z"/></g></g></svg>