<svg xmlns="http://www.w3.org/2000/svg" viewBox="0 0 17.67 17.79"><defs><style>.cls-1{fill:#0470c4;stroke:#0470c4;stroke-miterlimit:10;}</style></defs><g id="Layer_2" data-name="Layer 2"><g id="Layer_1-2" data-name="Layer 1"><path class="cls-1" d="M16.51,16.63a2.23,2.23,0,0,1-3.17,0L9.91,13.17a1.51,1.51,0,0,0-2.14,0L4.33,16.63a2.23,2.23,0,0,1-3.17,0,2.27,2.27,0,0,1,0-3.2L4.59,10a1.53,1.53,0,0,0,0-2.15L1.16,4.36a2.27,2.27,0,0,1,0-3.2,2.23,2.23,0,0,1,3.17,0L7.77,4.62a1.51,1.51,0,0,0,2.14,0l3.43-3.46a2.23,2.23,0,0,1,3.17,0,2.27,2.27,0,0,1,0,3.2L13.08,7.82a1.53,1.53,0,0,0,0,2.15l3.43,3.46A2.27,2.27,0,0,1,16.51,16.63ZM1.67,14a1.54,1.54,0,0,0,0,2.16,1.51,1.51,0,0,0,2.14,0l3.44-3.46a2.23,2.23,0,0,1,3.17,0l3.44,3.46a1.51,1.51,0,0,0,2.14,0A1.54,1.54,0,0,0,16,14l-3.44-3.46a2.28,2.28,0,0,1,0-3.19L16,3.84a1.54,1.54,0,0,0,0-2.16,1.51,1.51,0,0,0-2.14,0L10.42,5.14a2.23,2.23,0,0,1-3.17,0L3.81,1.68a1.51,1.51,0,0,0-2.14,0,1.54,1.54,0,0,0,0,2.16L5.11,7.3a2.28,2.28,0,0,1,0,3.19Z"/></g></g></svg>