<svg xmlns="http://www.w3.org/2000/svg" viewBox="0 0 44 44"><defs><style>.cls-1{fill:#0470c4;}.cls-2{fill:#333;}</style></defs><g id="Layer_2" data-name="Layer 2"><g id="Layer_1-2" data-name="Layer 1"><rect class="cls-1" width="44" height="44" rx="20.37"/><path class="cls-2" d="M26.3,21.35a7,7,0,0,0-2.38-2.09c-.48-.24-1.43-.75-2.84-1.52s-2.66-1.46-3.51-1.89a10.9,10.9,0,0,1-3-2.13,3.77,3.77,0,0,1-1.23-2.6.85.85,0,0,1,1-1,6.22,6.22,0,0,1,2.22,1.35c.89.68,2.49,1.74,4.8,3.2s4.26,2.62,5.85,3.48a13.92,13.92,0,0,1,3.43,2.07,1.94,1.94,0,0,1,.26,1c0,.37-1.3,1.47-3.89,3.28q-.33.21-1.17.9a22.34,22.34,0,0,0-2.15,2.11L20.44,31a15.2,15.2,0,0,1-1.6,1.58,2,2,0,0,1-1.21.51,1.67,1.67,0,0,1-1.1-.47A1.37,1.37,0,0,1,16,31.59c0-.43.38-.93,1.13-1.51a5.33,5.33,0,0,0,.7-.6A45.61,45.61,0,0,1,23.25,24,24.87,24.87,0,0,0,26.3,21.35Z"/></g></g></svg>