<svg xmlns="http://www.w3.org/2000/svg" xmlns:xlink="http://www.w3.org/1999/xlink" viewBox="0 0 1227.62 770.25"><defs><style>.cls-1{fill:none;}.cls-2{isolation:isolate;}.cls-3{opacity:0.95;}.cls-4{clip-path:url(#clip-path);}.cls-13,.cls-5{fill:#fff;}.cls-5{stroke:#000;stroke-miterlimit:10;}.cls-6{opacity:0.44;mix-blend-mode:multiply;fill:url(#linear-gradient);}.cls-7{fill:#333;}.cls-8,.cls-9{opacity:0.09;mix-blend-mode:overlay;}.cls-8{fill:url(#linear-gradient-2);}.cls-9{fill:url(#linear-gradient-3);}.cls-10{fill:url(#linear-gradient-4);}.cls-11{fill:url(#linear-gradient-5);}.cls-12{fill:url(#linear-gradient-6);}.cls-14{fill:#0470c4;}.cls-15{fill:url(#linear-gradient-7);}.cls-16{fill:url(#linear-gradient-8);}.cls-17{fill:url(#linear-gradient-9);}.cls-18{fill:url(#linear-gradient-10);}.cls-19{fill:url(#linear-gradient-11);}.cls-20{fill:url(#linear-gradient-12);}.cls-21{fill:url(#linear-gradient-13);}.cls-22{fill:url(#linear-gradient-14);}.cls-23{fill:url(#linear-gradient-15);}.cls-24{fill:url(#linear-gradient-16);}.cls-25{fill:url(#linear-gradient-17);}.cls-26{fill:url(#linear-gradient-18);}.cls-27{fill:url(#linear-gradient-19);}.cls-28{fill:url(#linear-gradient-20);}.cls-29{fill:url(#linear-gradient-21);}.cls-30{fill:url(#linear-gradient-22);}.cls-31{fill:url(#linear-gradient-23);}.cls-32{fill:url(#linear-gradient-24);}.cls-33{fill:url(#linear-gradient-25);}.cls-34{fill:url(#linear-gradient-26);}.cls-35{fill:url(#linear-gradient-27);}.cls-36{fill:url(#linear-gradient-28);}.cls-37{fill:url(#linear-gradient-29);}.cls-38{fill:url(#linear-gradient-30);}.cls-39{fill:url(#linear-gradient-31);}.cls-40{fill:url(#linear-gradient-32);}.cls-41{fill:url(#linear-gradient-33);}.cls-42{fill:url(#linear-gradient-34);}.cls-43{fill:url(#linear-gradient-35);}.cls-44{fill:url(#linear-gradient-36);}.cls-45{fill:url(#linear-gradient-37);}.cls-46{fill:url(#linear-gradient-38);}.cls-47{font-size:12px;font-family:MyriadHebrew-Regular, Myriad Hebrew;}</style><clipPath id="clip-path" transform="translate(583.12 1.75)"><rect class="cls-1" width="323" height="767"/></clipPath><linearGradient id="linear-gradient" x1="855.09" y1="741.03" x2="850.52" y2="1033.52" gradientTransform="translate(2029.39 -464.98) rotate(90)" gradientUnits="userSpaceOnUse"><stop offset="0" stop-color="#fff"/><stop offset="1"/></linearGradient><linearGradient id="linear-gradient-2" x1="681.59" y1="1225.52" x2="627.1" y2="1408.86" xlink:href="#linear-gradient"/><linearGradient id="linear-gradient-3" x1="846.36" y1="409.89" x2="962.06" y2="200.47" gradientTransform="matrix(1, 0, 0, 1, 0, 0)" xlink:href="#linear-gradient"/><linearGradient id="linear-gradient-4" x1="822.31" y1="948.97" x2="224.36" y2="651.53" gradientTransform="translate(2029.39 -464.98) rotate(90)" gradientUnits="userSpaceOnUse"><stop offset="0" stop-color="#00bdff"/><stop offset="1" stop-color="#0086aa"/></linearGradient><linearGradient id="linear-gradient-5" x1="989.47" y1="939.33" x2="607.58" y2="1002.21" gradientTransform="translate(2029.39 -464.98) rotate(90)" gradientUnits="userSpaceOnUse"><stop offset="0.3" stop-color="#fff"/><stop offset="1" stop-color="#333"/></linearGradient><linearGradient id="linear-gradient-6" x1="1117.02" y1="916.7" x2="1233.8" y2="916.7" xlink:href="#linear-gradient-4"/><linearGradient id="linear-gradient-7" x1="2949.74" y1="682.45" x2="2956.23" y2="1137.48" gradientTransform="matrix(0, 1, 1, 0, -127.25, -2851.65)" gradientUnits="userSpaceOnUse"><stop offset="0" stop-color="#fff"/><stop offset="0.08" stop-color="#dbdcdd"/><stop offset="0.19" stop-color="#aeb0b3"/><stop offset="0.31" stop-color="#888b8e"/><stop offset="0.43" stop-color="#696c71"/><stop offset="0.55" stop-color="#51555a"/><stop offset="0.68" stop-color="#3f444a"/><stop offset="0.83" stop-color="#353a40"/><stop offset="1" stop-color="#32373d"/></linearGradient><linearGradient id="linear-gradient-8" x1="2973.37" y1="682.11" x2="2979.86" y2="1137.14" gradientTransform="matrix(0, 1, 1, 0, -710.37, -2853.4)" xlink:href="#linear-gradient-7"/><linearGradient id="linear-gradient-9" x1="2949.43" y1="682.45" x2="2955.92" y2="1137.48" gradientTransform="matrix(0, 1, 1, 0, -710.37, -2853.4)" xlink:href="#linear-gradient-7"/><linearGradient id="linear-gradient-10" x1="2973.06" y1="682.12" x2="2979.55" y2="1137.15" gradientTransform="matrix(0, 1, 1, 0, -710.37, -2853.4)" xlink:href="#linear-gradient-7"/><linearGradient id="linear-gradient-11" x1="2949.12" y1="682.46" x2="2955.61" y2="1137.49" gradientTransform="matrix(0, 1, 1, 0, -710.37, -2853.4)" xlink:href="#linear-gradient-7"/><linearGradient id="linear-gradient-12" x1="2972.75" y1="682.12" x2="2979.24" y2="1137.15" xlink:href="#linear-gradient-7"/><linearGradient id="linear-gradient-13" x1="2948.81" y1="682.46" x2="2955.29" y2="1137.49" xlink:href="#linear-gradient-7"/><linearGradient id="linear-gradient-14" x1="2972.44" y1="682.13" x2="2978.93" y2="1137.16" gradientTransform="matrix(0, 1, 1, 0, -710.37, -2853.4)" xlink:href="#linear-gradient-7"/><linearGradient id="linear-gradient-15" x1="2948.5" y1="682.47" x2="2954.98" y2="1137.49" gradientTransform="matrix(0, 1, 1, 0, -710.37, -2853.4)" xlink:href="#linear-gradient-7"/><linearGradient id="linear-gradient-16" x1="2972.13" y1="682.13" x2="2978.62" y2="1137.16" gradientTransform="matrix(0, 1, 1, 0, -710.37, -2853.4)" xlink:href="#linear-gradient-7"/><linearGradient id="linear-gradient-17" x1="2948.19" y1="682.47" x2="2954.67" y2="1137.5" gradientTransform="matrix(0, 1, 1, 0, -710.37, -2853.4)" xlink:href="#linear-gradient-7"/><linearGradient id="linear-gradient-18" x1="2971.82" y1="682.14" x2="2978.31" y2="1137.16" xlink:href="#linear-gradient-7"/><linearGradient id="linear-gradient-19" x1="2947.88" y1="682.47" x2="2954.36" y2="1137.5" gradientTransform="matrix(0, 1, 1, 0, -710.37, -2853.4)" xlink:href="#linear-gradient-7"/><linearGradient id="linear-gradient-20" x1="2971.51" y1="682.14" x2="2978" y2="1137.17" xlink:href="#linear-gradient-7"/><linearGradient id="linear-gradient-21" x1="2947.57" y1="682.48" x2="2954.05" y2="1137.51" gradientTransform="matrix(0, 1, 1, 0, -710.37, -2853.4)" xlink:href="#linear-gradient-7"/><linearGradient id="linear-gradient-22" x1="2971.2" y1="682.14" x2="2977.69" y2="1137.17" gradientTransform="matrix(0, 1, 1, 0, -710.37, -2853.4)" xlink:href="#linear-gradient-7"/><linearGradient id="linear-gradient-23" x1="2947.26" y1="682.48" x2="2953.74" y2="1137.51" xlink:href="#linear-gradient-7"/><linearGradient id="linear-gradient-24" x1="2970.89" y1="682.15" x2="2977.38" y2="1137.18" gradientTransform="matrix(0, 1, 1, 0, -710.37, -2853.4)" xlink:href="#linear-gradient-7"/><linearGradient id="linear-gradient-25" x1="2946.95" y1="682.49" x2="2953.43" y2="1137.51" gradientTransform="matrix(0, 1, 1, 0, -710.37, -2853.4)" xlink:href="#linear-gradient-7"/><linearGradient id="linear-gradient-26" x1="2970.58" y1="682.16" x2="2977.07" y2="1137.18" gradientTransform="matrix(0, 1, 1, 0, -710.37, -2853.4)" xlink:href="#linear-gradient-7"/><linearGradient id="linear-gradient-27" x1="2946.64" y1="682.49" x2="2953.12" y2="1137.52" gradientTransform="matrix(0, 1, 1, 0, -710.37, -2853.4)" xlink:href="#linear-gradient-7"/><linearGradient id="linear-gradient-28" x1="2970.27" y1="682.16" x2="2976.76" y2="1137.19" gradientTransform="matrix(0, 1, 1, 0, -710.37, -2853.4)" xlink:href="#linear-gradient-7"/><linearGradient id="linear-gradient-29" x1="2946.33" y1="682.5" x2="2952.81" y2="1137.52" xlink:href="#linear-gradient-7"/><linearGradient id="linear-gradient-30" x1="2969.96" y1="682.16" x2="2976.45" y2="1137.19" gradientTransform="matrix(0, 1, 1, 0, -710.37, -2853.4)" xlink:href="#linear-gradient-7"/><linearGradient id="linear-gradient-31" x1="2946.02" y1="682.5" x2="2952.5" y2="1137.53" gradientTransform="matrix(0, 1, 1, 0, -710.37, -2853.4)" xlink:href="#linear-gradient-7"/><linearGradient id="linear-gradient-32" x1="2969.65" y1="682.17" x2="2976.14" y2="1137.19" xlink:href="#linear-gradient-7"/><linearGradient id="linear-gradient-33" x1="2945.71" y1="682.5" x2="2952.19" y2="1137.53" gradientTransform="matrix(0, 1, 1, 0, -710.37, -2853.4)" xlink:href="#linear-gradient-7"/><linearGradient id="linear-gradient-34" x1="2969.34" y1="682.17" x2="2975.83" y2="1137.2" gradientTransform="matrix(0, 1, 1, 0, -710.37, -2853.4)" xlink:href="#linear-gradient-7"/><linearGradient id="linear-gradient-35" x1="2945.4" y1="682.51" x2="2951.88" y2="1137.54" gradientTransform="matrix(0, 1, 1, 0, -710.37, -2853.4)" xlink:href="#linear-gradient-7"/><linearGradient id="linear-gradient-36" x1="2969.03" y1="682.18" x2="2975.52" y2="1137.2" xlink:href="#linear-gradient-7"/><linearGradient id="linear-gradient-37" x1="2945.09" y1="682.52" x2="2951.57" y2="1137.54" gradientTransform="matrix(0, 1, 1, 0, -710.37, -2853.4)" xlink:href="#linear-gradient-7"/><linearGradient id="linear-gradient-38" x1="2968.72" y1="682.18" x2="2975.21" y2="1137.21" gradientTransform="matrix(0, 1, 1, 0, -710.37, -2853.4)" xlink:href="#linear-gradient-7"/></defs><g class="cls-2"><g id="Layer_2" data-name="Layer 2"><g id="Layer_1-2" data-name="Layer 1"><g class="cls-3"><g class="cls-4"><rect class="cls-5" x="583.62" y="1.75" width="320" height="768"/><polygon class="cls-6" points="1188.33 768.82 633.09 768.82 633.09 0 1214.63 0 1148.76 151.57 1106.72 248.32 1131.31 215.8 1073.98 364.76 1069.68 375.92 1071.82 384.6 1075.63 400.1 1086.83 445.65 1092.77 469.8 1137.58 652.04 1142.93 664.37 1188.33 768.82"/><polygon class="cls-7" points="1164.36 0 1163.26 2.55 1163.24 2.59 1115.58 112.25 1106.06 134.16 1056.45 248.32 1081.04 215.8 1054.38 285.07 1043.94 312.18 1026.19 358.31 1019.41 375.92 1021.83 385.74 1037.45 449.28 1046.5 486.1 1054.36 518.04 1054.36 518.05 1068.71 576.42 1087.3 652.04 1138.06 768.82 582.82 768.82 582.82 0 1164.36 0"/><polyline class="cls-8" points="903.63 0 1020.86 0 1115.58 112.25 1056.45 248.32 1081.04 215.8 1054.38 285.07 1043.95 312.18 1019.41 375.92 1021.83 385.73 1068.71 576.42 633.09 60.22 582.82 0.65 582.82 0 903.63 0"/><polygon class="cls-9" points="1138.06 768.82 906.53 768.82 883.53 741.56 880.04 737.43 857.36 710.55 847.24 698.57 846.6 697.8 813.44 658.51 786.17 626.2 781.75 620.96 633.09 444.8 582.82 385.23 582.82 0 696.31 0 1005.59 366.49 1012.54 374.73 1021.83 385.74 1037.45 449.28 1046.5 486.1 1054.36 518.04 1054.36 518.05 1068.71 576.42 1087.3 652.04 1138.06 768.82"/><polygon class="cls-10" points="1039.69 542.47 1064.29 575 1002.66 414.88 1034.16 286.76 1044.48 244.8 1086.86 72.44 1091.47 53.71 1102.16 10.23 1104.67 0 1164.36 0 1056.45 248.32 1081.04 215.8 1054.38 285.07 1043.95 312.18 1019.41 375.92 1087.31 652.04 1039.69 542.47"/><polygon class="cls-11" points="1079.94 576.92 1063.74 539.63 1032.33 467.36 1052.54 494.08 1056.92 499.88 1048.73 478.58 1020.86 406.16 1011.07 380.75 995.3 339.76 1055.73 93.98 1083.51 93.98 1079.07 104.21 1049.09 173.2 1068.38 147.69 1073.68 140.68 1063.77 166.43 1012.05 300.8 1021.39 338.79 1031.29 379.05 1050.88 458.75 1079.94 576.92"/><polygon class="cls-12" points="1138.06 768.82 1116.02 768.82 1087.31 652.04 1138.06 768.82"/><polygon class="cls-13" points="1163.26 2.55 1106.06 134.16 1109.77 109.95 1163.26 2.55"/><polygon class="cls-13" points="1002.66 492.75 1065.33 621.81 1049.4 603.29 1002.66 492.75"/><polygon class="cls-14" points="791.57 263.62 633.09 267.16 582.82 268.28 582.82 247.77 633.09 253.09 711.69 261.42 674.08 246.03 791.57 263.62"/><ellipse class="cls-15" cx="618.91" cy="99" rx="2.29" ry="2.3"/><path class="cls-16" d="M35.79,118.59a2.3,2.3,0,1,1-2.29,2.3A2.29,2.29,0,0,1,35.79,118.59Z" transform="translate(583.12 1.75)"/><path class="cls-17" d="M57.55,95a2.3,2.3,0,1,1-2.29,2.3A2.29,2.29,0,0,1,57.55,95Z" transform="translate(583.12 1.75)"/><path class="cls-18" d="M57.55,118.59a2.3,2.3,0,1,1-2.29,2.3A2.29,2.29,0,0,1,57.55,118.59Z" transform="translate(583.12 1.75)"/><path class="cls-19" d="M79.31,95A2.3,2.3,0,1,1,77,97.25,2.29,2.29,0,0,1,79.31,95Z" transform="translate(583.12 1.75)"/><ellipse class="cls-20" cx="662.43" cy="122.63" rx="2.29" ry="2.3"/><ellipse class="cls-21" cx="684.2" cy="99" rx="2.29" ry="2.3"/><path class="cls-22" d="M101.07,118.59a2.3,2.3,0,1,1-2.28,2.3A2.3,2.3,0,0,1,101.07,118.59Z" transform="translate(583.12 1.75)"/><path class="cls-23" d="M122.83,95a2.3,2.3,0,1,1-2.28,2.3A2.29,2.29,0,0,1,122.83,95Z" transform="translate(583.12 1.75)"/><path class="cls-24" d="M122.83,118.59a2.3,2.3,0,1,1-2.28,2.3A2.29,2.29,0,0,1,122.83,118.59Z" transform="translate(583.12 1.75)"/><path class="cls-25" d="M144.6,95a2.3,2.3,0,1,1-2.29,2.3A2.29,2.29,0,0,1,144.6,95Z" transform="translate(583.12 1.75)"/><ellipse class="cls-26" cx="727.72" cy="122.63" rx="2.29" ry="2.3"/><path class="cls-27" d="M166.36,95a2.3,2.3,0,1,1-2.29,2.3A2.29,2.29,0,0,1,166.36,95Z" transform="translate(583.12 1.75)"/><ellipse class="cls-28" cx="749.48" cy="122.63" rx="2.29" ry="2.3"/><path class="cls-29" d="M188.12,95a2.3,2.3,0,1,1-2.29,2.3A2.29,2.29,0,0,1,188.12,95Z" transform="translate(583.12 1.75)"/><path class="cls-30" d="M188.12,118.59a2.3,2.3,0,1,1-2.29,2.3A2.29,2.29,0,0,1,188.12,118.59Z" transform="translate(583.12 1.75)"/><ellipse class="cls-31" cx="793.01" cy="99" rx="2.29" ry="2.3"/><path class="cls-32" d="M209.88,118.59a2.3,2.3,0,1,1-2.28,2.3A2.3,2.3,0,0,1,209.88,118.59Z" transform="translate(583.12 1.75)"/><path class="cls-33" d="M231.64,95a2.3,2.3,0,1,1-2.28,2.3A2.29,2.29,0,0,1,231.64,95Z" transform="translate(583.12 1.75)"/><path class="cls-34" d="M231.64,118.59a2.3,2.3,0,1,1-2.28,2.3A2.29,2.29,0,0,1,231.64,118.59Z" transform="translate(583.12 1.75)"/><path class="cls-35" d="M253.4,95a2.3,2.3,0,1,1-2.28,2.3A2.29,2.29,0,0,1,253.4,95Z" transform="translate(583.12 1.75)"/><path class="cls-36" d="M253.4,118.59a2.3,2.3,0,1,1-2.28,2.3A2.29,2.29,0,0,1,253.4,118.59Z" transform="translate(583.12 1.75)"/><ellipse class="cls-37" cx="858.29" cy="99" rx="2.29" ry="2.3"/><path class="cls-38" d="M275.17,118.59a2.3,2.3,0,1,1-2.29,2.3A2.29,2.29,0,0,1,275.17,118.59Z" transform="translate(583.12 1.75)"/><path class="cls-39" d="M296.93,95a2.3,2.3,0,1,1-2.29,2.3A2.29,2.29,0,0,1,296.93,95Z" transform="translate(583.12 1.75)"/><ellipse class="cls-40" cx="880.05" cy="122.63" rx="2.29" ry="2.3"/><path class="cls-41" d="M318.69,95a2.3,2.3,0,1,1-2.28,2.3A2.3,2.3,0,0,1,318.69,95Z" transform="translate(583.12 1.75)"/><path class="cls-42" d="M318.69,118.59a2.3,2.3,0,1,1-2.28,2.3A2.3,2.3,0,0,1,318.69,118.59Z" transform="translate(583.12 1.75)"/><path class="cls-43" d="M340.45,95a2.3,2.3,0,1,1-2.28,2.3A2.3,2.3,0,0,1,340.45,95Z" transform="translate(583.12 1.75)"/><ellipse class="cls-44" cx="923.58" cy="122.63" rx="2.29" ry="2.3"/><path class="cls-45" d="M362.21,95a2.3,2.3,0,1,1-2.28,2.3A2.29,2.29,0,0,1,362.21,95Z" transform="translate(583.12 1.75)"/><path class="cls-46" d="M362.21,118.59a2.3,2.3,0,1,1-2.28,2.3A2.29,2.29,0,0,1,362.21,118.59Z" transform="translate(583.12 1.75)"/><text class="cls-47" transform="translate(252.46 341.71)">Lorem ipsum</text><text class="cls-47" transform="translate(0 19.09)">Lorem ipsum</text><rect class="cls-13" x="952.62" y="386.25" width="275" height="86" rx="43"/></g></g></g></g></g></svg>