<svg xmlns="http://www.w3.org/2000/svg" viewBox="0 0 70 70"><defs><style>.cls-1{opacity:0.95;}.cls-2{fill:#fcfdfd;}.cls-3{fill:#0470c4;}.cls-4{fill:#131050;}.cls-5{fill:#010102;}</style></defs><g id="Layer_2" data-name="Layer 2"><g id="Layer_1-2" data-name="Layer 1"><g class="cls-1"><path class="cls-2" d="M35,70A35,35,0,1,1,70,35,35,35,0,0,1,35,70ZM35,2.44A32.56,32.56,0,1,0,67.56,35,32.57,32.57,0,0,0,35,2.44Z"/><path class="cls-3" d="M35,2.44A32.56,32.56,0,1,1,2.44,35,32.57,32.57,0,0,1,35,2.44Zm2.12,30L37,32.41l-.21-.09a2.26,2.26,0,0,0-1.55-.21h-.5a.7.7,0,0,0-.32-.06,2.72,2.72,0,0,0-1.52.41,1.46,1.46,0,0,0-.36.09c-.3.08-.54.31-.85.33a2.9,2.9,0,0,0,.51-1.13,2.13,2.13,0,0,0-1.45,1.57c0,.09,0,.13.1.12s-.14.16-.22.23a6.85,6.85,0,0,0-1.1,9.39c.06.08.17.14.15.27a3.07,3.07,0,0,0-1.17-.09,2.26,2.26,0,0,0,2.06.9,5.75,5.75,0,0,0,.84.63,2.57,2.57,0,0,0-.94.29l.05,0,.1.06a2.4,2.4,0,0,0,1.84.11,4.84,4.84,0,0,0,1.49.4l.14,0,.52.05c.27.33.49.33.75,0l.52-.05.15,0a4.77,4.77,0,0,0,1.49-.4,2.32,2.32,0,0,0,2-.21,2.86,2.86,0,0,0-.94-.3,6.25,6.25,0,0,0,.83-.63,2.36,2.36,0,0,0,2.09-.92c-.24,0-.44,0-.63,0s-.38.07-.57.1.07-.17.13-.24a6.88,6.88,0,0,0-.16-8.51c-.35-.41-.77-.75-1.14-1.14.07,0,.11,0,.1-.09a2.12,2.12,0,0,0-1.45-1.6,2.7,2.7,0,0,0,.51,1.13c-.12,0-.19-.05-.29-.08a3.21,3.21,0,0,0-.89-.34ZM35,65.82c.78-1.69,1.52-3.32,2.26-4.94a.59.59,0,0,0,0-.26q0-7.15,0-14.31c0-.24-.08-.24-.28-.18a5.48,5.48,0,0,1-1.5.25c-.29,0-.35.1-.35.38q0,8.25,0,16.52c0,.28,0,.57,0,.85a4.2,4.2,0,0,1-.18,1.1,7.11,7.11,0,0,1-.18-1.79V46.89c0-.47,0-.47-.47-.5l-.18,0a9.66,9.66,0,0,1-1.46-.29V60.58a1,1,0,0,0,.09.42c.58,1.25,1.15,2.5,1.72,3.75ZM46.2,17.51l-.09,0c-1.58,1.49-3.17,3-4.74,4.47a2.81,2.81,0,0,0-.85,2.41c.1,1,.3,2,.36,2.95a7.5,7.5,0,0,1-1.46,4.93.41.41,0,0,0,.06.64,1.66,1.66,0,0,1,.21.16c.12.13.19.1.29,0a13.57,13.57,0,0,0,.8-1.37,13.28,13.28,0,0,0,1.5-5.65A10.34,10.34,0,0,1,42.35,25a6.67,6.67,0,0,1,1.56-3.38c.59-.75,1.22-1.47,1.84-2.19A2.35,2.35,0,0,0,46.2,17.51Zm-22.39,0a2.52,2.52,0,0,0,.68,2.2,26.09,26.09,0,0,1,2,2.36,6.41,6.41,0,0,1,1.26,3.82,7.78,7.78,0,0,0,.06,1.18,14,14,0,0,0,2.12,5.81c.08.13.14.36.28.34a.82.82,0,0,0,.45-.36.38.38,0,0,0,0-.51A7.27,7.27,0,0,1,29.11,28a16.21,16.21,0,0,1,.31-3.1,3.13,3.13,0,0,0-1.07-3.18l-.41-.38Zm-.43,1.13a3.17,3.17,0,0,1,0-1.14.73.73,0,0,0-.28-.71c-2.35-2.19-4.69-4.4-7-6.59-.05,0-.08-.12-.2-.1a6.76,6.76,0,0,0,1,2.6,16.58,16.58,0,0,0,2.86,3.17A28.55,28.55,0,0,0,23.38,18.62Zm30.71-8.56-.59.57-6.65,6.24c-.08.08-.23.14-.21.3a5,5,0,0,1,0,1.44l.21-.13c.77-.5,1.51-1,2.23-1.6a19.58,19.58,0,0,0,4.06-4.17A5.53,5.53,0,0,0,54.09,10.06ZM23.8,21.67a4.54,4.54,0,0,1-.29-2.08.48.48,0,0,0-.28-.53,26.8,26.8,0,0,1-5.54-4.59c-.31-.34-.6-.7-.91-1.07C17.11,15.86,20.23,19.84,23.8,21.67Zm22.39,0,.7-.43a15.92,15.92,0,0,0,5.66-5.92,6.43,6.43,0,0,0,.69-2,18.92,18.92,0,0,1-1.9,2.14,29.5,29.5,0,0,1-4.63,3.63c-.1.06-.25.09-.23.27A5.14,5.14,0,0,1,46.19,21.71Zm4.14,1.85-.3.37-.25.29a12.74,12.74,0,0,1-5,3.4c-.12,0-.23.07-.25.24a1.85,1.85,0,0,1-.42.92.34.34,0,0,0-.1.27,2.63,2.63,0,0,1-.12,1.21.39.39,0,0,0,.29-.08,10.19,10.19,0,0,0,1.82-1,12.39,12.39,0,0,0,3.56-3.32A4,4,0,0,0,50.33,23.56Zm-30.67,0a4.39,4.39,0,0,0,1.08,2.8,13.4,13.4,0,0,0,5,3.78.94.94,0,0,0,.4.13A2.45,2.45,0,0,1,26,29.06a.36.36,0,0,0-.11-.29,1.92,1.92,0,0,1-.4-.84.35.35,0,0,0-.28-.32,12.82,12.82,0,0,1-4.05-2.48A15.83,15.83,0,0,1,19.66,23.57Zm7.42,9.65a4.57,4.57,0,0,1-.73-2.08.39.39,0,0,0-.29-.35A13.86,13.86,0,0,1,20.65,27s-.06-.12-.15-.1a3.24,3.24,0,0,0,.4,1.29A10.65,10.65,0,0,0,26.29,33,1.77,1.77,0,0,0,27.08,33.22Zm15.83,0a1.25,1.25,0,0,0,.24,0c.2-.06.41-.11.61-.19A10.66,10.66,0,0,0,49,28.32a3.27,3.27,0,0,0,.47-1.47s0,0,0,0a3.45,3.45,0,0,0-.26.28,13.84,13.84,0,0,1-5.26,3.64c-.12.05-.24.08-.26.26A4.72,4.72,0,0,1,42.91,33.23ZM19,20.82a4,4,0,0,0,.77,2.05,11.82,11.82,0,0,0,5.39,4.23c.08,0,.15.09.24.06a.44.44,0,0,0,0-.37,3.27,3.27,0,0,1-.59-1.91c0-.21-.07-.28-.26-.33A10.39,10.39,0,0,1,21,22.79,12.85,12.85,0,0,1,19,20.82Zm32.08,0-.07,0a11.16,11.16,0,0,1-5.57,3.74.18.18,0,0,0-.15.21,3.45,3.45,0,0,1-.6,2,.28.28,0,0,0,0,.31c.07.12.17,0,.25,0a12.32,12.32,0,0,0,4.17-2.77,8.43,8.43,0,0,0,1.62-2.17A3.45,3.45,0,0,0,51.05,20.82ZM24.37,24a5.89,5.89,0,0,1-.16-.59,1.91,1.91,0,0,1-.06-.58c0-.35-.11-.52-.42-.69a16.45,16.45,0,0,1-5.4-4.62.58.58,0,0,0-.25-.27,4,4,0,0,0,.58,2.22,10.48,10.48,0,0,0,4.25,3.94A7.56,7.56,0,0,0,24.37,24Zm21.24,0a7.89,7.89,0,0,0,1.48-.6,10.24,10.24,0,0,0,4.4-4.22,3.88,3.88,0,0,0,.43-1.93c-.13,0-.16.14-.22.21-.31.38-.6.79-.93,1.15a17.2,17.2,0,0,1-4.63,3.59.45.45,0,0,0-.29.45A2.87,2.87,0,0,1,45.61,24ZM35,29.21h4.45c.1,0,.23.06.25-.14a.77.77,0,0,0-.82-1h-7.7c-.56,0-.81.27-.82.84,0,.22.06.27.28.27C32.06,29.2,33.51,29.21,35,29.21Zm13.58.7a13.61,13.61,0,0,1-1.38,1.46,8.55,8.55,0,0,1-4.45,2.36.19.19,0,0,0-.19.2,6.84,6.84,0,0,1-.21.92c-.07.26.14.44.24.64s.25,0,.37,0a9.87,9.87,0,0,0,4.59-3.31A4.25,4.25,0,0,0,48.55,29.91Zm-27.13-.08A3.89,3.89,0,0,0,22,31.54a9.59,9.59,0,0,0,2,2.23,8.71,8.71,0,0,0,3.12,1.73c.17,0,.23,0,.34-.14.22-.33.07-.62,0-.94,0-.51-.25-.67-.76-.78a8.16,8.16,0,0,1-3.53-1.87A12.75,12.75,0,0,1,21.42,29.83Zm1,3a3.83,3.83,0,0,0,.69,2,8.45,8.45,0,0,0,4.34,2.93c.06,0,.12.05.17,0s0-.15,0-.22a2.4,2.4,0,0,1-.25-1.34c0-.17-.06-.22-.21-.26a7.25,7.25,0,0,1-1.34-.51A11.79,11.79,0,0,1,22.4,32.8Zm25.18.08h-.07l-.16.17A10.05,10.05,0,0,1,42.84,36c-.14,0-.18.1-.17.25a2.6,2.6,0,0,1-.24,1.31c0,.07-.09.16,0,.22s.16,0,.24,0a8.91,8.91,0,0,0,3.85-2.37A3.93,3.93,0,0,0,47.58,32.88ZM35,29.59H30.6c-.29,0-.33.06-.21.32a.68.68,0,0,0,.66.42H39a.68.68,0,0,0,.66-.42c.12-.26.08-.32-.21-.32ZM35,21h-2.3c-.43,0-.58.14-.58.55s.14.57.56.57h4.63c.4,0,.55-.15.55-.55s-.14-.57-.56-.57ZM27.5,40.22l-.1-.15a2.62,2.62,0,0,1-.78-1.94c0-.16-.08-.19-.19-.24a10.39,10.39,0,0,1-2.53-1.54c-.07-.05-.12-.14-.23-.13a3.45,3.45,0,0,0,1.5,2.83,10.65,10.65,0,0,0,1.42.82A4.21,4.21,0,0,0,27.5,40.22Zm18.84-4.06a10.52,10.52,0,0,1-2.85,1.76c-.14.06-.11.16-.11.27A2.66,2.66,0,0,1,42.67,40c-.05.06-.14.09-.11.2l.11,0a8.61,8.61,0,0,0,2.46-1.37A3.48,3.48,0,0,0,46.34,36.16ZM35,27.72c.63,0,1.25,0,1.88,0,.37,0,.45-.1.45-.48s-.06-.53-.43-.53H33.07c-.37,0-.43.09-.44.5s.08.51.45.51C33.73,27.73,34.38,27.72,35,27.72ZM35,24.92h2c.35,0,.41-.08.41-.48s-.07-.52-.41-.52H33.06c-.35,0-.43.1-.43.54s.07.46.44.46ZM35,22.54h-2c-.35,0-.42.07-.43.44s.07.55.41.56H37c.34,0,.41-.11.4-.56s-.07-.44-.42-.44ZM35,26.32h2c.34,0,.42-.09.41-.51s-.07-.49-.41-.49H33.07c-.37,0-.44.09-.44.5s.08.5.43.5Zm8.27-2.78A3.35,3.35,0,0,0,46,19.81,13.51,13.51,0,0,0,43.25,23.54ZM24,19.78c-.24,1.79,1.24,3.79,2.78,3.75A16.89,16.89,0,0,0,24,19.78Zm2.72,22.67A1.93,1.93,0,0,0,27.43,44a5.53,5.53,0,0,0,2.17,1,.61.61,0,0,0,.71-.21,1.8,1.8,0,0,0-.79-.48,2.28,2.28,0,0,1-1.42-1.12c0-.05-.06-.11-.12-.13A5.6,5.6,0,0,1,26.71,42.45Zm16.58,0a5.7,5.7,0,0,1-1.23.58.26.26,0,0,0-.16.15,2.34,2.34,0,0,1-1.46,1.12,1.85,1.85,0,0,0-.77.49c.18.07.27.29.49.24a5.64,5.64,0,0,0,2.38-1A1.94,1.94,0,0,0,43.29,42.45Zm-1.94-8.36a3.77,3.77,0,0,0,1.79-2.64l-.27.19a3.34,3.34,0,0,1-1.55.59.87.87,0,0,0-.65.61.17.17,0,0,0,.07.15A3,3,0,0,1,41.35,34.09Zm-12.69,0a1.94,1.94,0,0,1,.42-.85.51.51,0,0,0,0-.78.39.39,0,0,0-.35-.21,2.35,2.35,0,0,1-.37-.05,3.66,3.66,0,0,1-1.51-.73A3.6,3.6,0,0,0,28.66,34.08ZM45,39.52a10.43,10.43,0,0,1-1.74.93.19.19,0,0,0-.12.18,2.6,2.6,0,0,1-1.45,1.93c-.06,0-.16,0-.15.15C42.67,42.54,44.93,41,45,39.52ZM25,39.52c.07,1.27,2,3,3.47,3.19,0,0,0-.05,0-.06l-.12-.08a2.6,2.6,0,0,1-1.47-1.94c0-.08,0-.14-.1-.17A11.57,11.57,0,0,1,25,39.52ZM45.39,23A3.75,3.75,0,0,1,43.14,24c-.12,0-.15.09-.18.19a7.39,7.39,0,0,0-.18.89c-.05.27.06.29.26.25A3.06,3.06,0,0,0,45.11,24,1.82,1.82,0,0,0,45.39,23ZM24.6,23c0,.17,0,.26,0,.34a2.58,2.58,0,0,0,1.87,1.94c.9.3.76.21.64-.54s-.1-.61-.68-.73A3.83,3.83,0,0,1,24.6,23Zm20.17,2.08a3.32,3.32,0,0,1-1.9.79c-.16,0-.13.11-.14.21,0,.32,0,.65,0,1s.07.31.31.28A2.17,2.17,0,0,0,44.77,25.05Zm-19.54,0a1,1,0,0,0,0,.48,2.08,2.08,0,0,0,1.8,1.76c.18,0,.29,0,.25-.23A6.23,6.23,0,0,1,27.27,26c0-.12-.05-.16-.17-.17a3,3,0,0,1-.83-.18A4.33,4.33,0,0,1,25.23,25.06Zm18.36,4.3a2.72,2.72,0,0,1-1.48.6.14.14,0,0,0-.14.12c-.2.57-.44,1.12-.7,1.68A2.46,2.46,0,0,0,43.59,29.36ZM28.72,31.77c-.19-.44-.39-.86-.54-1.29s-.23-.59-.66-.58a1.36,1.36,0,0,1-.65-.24l-.47-.29A2.48,2.48,0,0,0,28.72,31.77Zm13.45-2.28c1-.08,2.2-1.35,1.94-2.16a2.27,2.27,0,0,1-1.38.42c-.09,0-.15,0-.17.11C42.47,28.4,42.31,28.93,42.17,29.49Zm-16.3-2.17c-.18.91.9,2,1.83,2.16.14,0,.11-.08.09-.15a14.57,14.57,0,0,1-.35-1.45c0-.08,0-.14-.13-.13A2.28,2.28,0,0,1,25.87,27.32Zm6.83,4.5a8.53,8.53,0,0,1,1.61-.33c.54,0,.54,0,.5-.6,0-.12,0-.18-.16-.18h-1.8c-.11,0-.15,0-.15.16Zm4.6,0c0-.31,0-.61,0-.9s0-.21-.21-.21H35.73c-.6,0-.6,0-.54.6,0,.1,0,.15.15.16A7.93,7.93,0,0,1,37.3,31.82Zm-7.7,1.29A2.1,2.1,0,0,0,29,35.28,2.31,2.31,0,0,0,29.6,33.11ZM27.85,35.4A2.09,2.09,0,0,0,28,37.6,2.05,2.05,0,0,0,27.85,35.4ZM41,35.28a2,2,0,0,0-.65-2.14A2.28,2.28,0,0,0,41,35.28Zm1,2.34a2.07,2.07,0,0,0,.13-2.24A2.29,2.29,0,0,0,42,37.62ZM27.27,40.75c.11.78.91,1.61,1.51,1.6A2.19,2.19,0,0,0,27.27,40.75Zm15.46,0a2.09,2.09,0,0,0-1.49,1.62A2,2,0,0,0,42.73,40.75Zm.34-2.6a2,2,0,0,0-1,2A2.16,2.16,0,0,0,43.07,38.15ZM28,40.16a2.08,2.08,0,0,0-1.06-2A2.28,2.28,0,0,0,28,40.16Zm13.6-4.83A2.78,2.78,0,0,0,42,34.21C41.34,34.58,41.22,34.89,41.58,35.33Zm-13.15,0c.3-.58.21-.84-.44-1.1A2.74,2.74,0,0,0,28.43,35.34Zm-.9,4.87h0s0,0,0,0l0,0Zm14.94,0,0,0,0,0,0,0Z"/><path class="cls-4" d="M39.14,33.44c.37.39.79.73,1.14,1.14a6.88,6.88,0,0,1,.16,8.51c-.06.07-.17.12-.13.24h0c-.06,0-.08,0-.1.07s-.21.13-.31.21-.44.26-.49.54a6.25,6.25,0,0,1-.83.63,2.34,2.34,0,0,0-1.34.34c.08.11.2.1.28.17a4.77,4.77,0,0,1-1.49.4,2.27,2.27,0,0,0,.39-2.13c-.12,0-.16.13-.21.21a2.35,2.35,0,0,0-.33,2l-.52.05a.38.38,0,0,0-.15-.48.36.36,0,0,0-.44,0,.38.38,0,0,0-.16.48l-.52-.05.06-.28a2.25,2.25,0,0,0-.58-1.93A2.3,2.3,0,0,0,34,45.68a4.84,4.84,0,0,1-1.49-.4c.09-.07.21-.06.27-.17a2.27,2.27,0,0,0-1.32-.34,5.75,5.75,0,0,1-.84-.63c0-.12-.08-.17-.14-.24a3.32,3.32,0,0,0-.66-.51s0-.08-.1-.07h0c0-.13-.09-.19-.15-.27a6.85,6.85,0,0,1,1.1-9.39c.08-.07.19-.12.22-.23a3.46,3.46,0,0,0,.75-.49c.05,0,.1,0,.09-.07h0c.31,0,.55-.25.85-.33a1.46,1.46,0,0,1,.36-.09c-.16.17-.39.28-.51.52a2.45,2.45,0,0,0,2.35-.87h.5a2.29,2.29,0,0,0,2.33.83c-.11-.2-.33-.29-.46-.48a3.21,3.21,0,0,1,.89.34c.1,0,.17.13.29.08h0c0,.06,0,.07.09.07A3.72,3.72,0,0,0,39.14,33.44Zm-.21,7.76-1.2-2.08a.32.32,0,0,1,0-.37c.3-.5.59-1,.88-1.5.1-.18.2-.37.33-.59H36.59a.38.38,0,0,1-.42-.23c-.34-.62-.71-1.22-1.05-1.84-.1-.18-.15-.15-.24,0-.34.6-.7,1.2-1,1.81a.42.42,0,0,1-.43.26c-.76,0-1.53,0-2.29,0,0,.14.06.21.11.29.32.57.64,1.14,1,1.7a.48.48,0,0,1,0,.58c-.35.58-.68,1.17-1,1.76,0,.06-.12.11-.07.21h2.3a.39.39,0,0,1,.39.22c.29.53.6,1.06.9,1.58.09.15.18.29.28.47.41-.7.8-1.36,1.17-2a.4.4,0,0,1,.41-.24Zm-9.7-5.62a2.05,2.05,0,0,0,2.13-.75A2.19,2.19,0,0,0,29.23,35.58Zm7.63-1.51a2.12,2.12,0,0,0,2.23-.23A2.07,2.07,0,0,0,36.86,34.07Zm3.94,1.51a2.29,2.29,0,0,0-2.23-.73A2.32,2.32,0,0,0,40.8,35.58Zm-.25,2.56a2.05,2.05,0,0,0,1.05,2A2.13,2.13,0,0,0,40.55,38.14Zm-7.4-4.06a2.08,2.08,0,0,0-2.24-.24A2.18,2.18,0,0,0,33.15,34.08Zm7.17,6a2.07,2.07,0,0,0,.5,2.19A2.17,2.17,0,0,0,40.32,40.08Zm-9.88,1.57a2.06,2.06,0,0,0,.48,2.17A2.05,2.05,0,0,0,30.44,41.65Zm9.14,0a2.09,2.09,0,0,0-.49,2.23A2.29,2.29,0,0,0,39.58,41.62Zm.28-5.2a2.08,2.08,0,0,0,1.75,1.37A2,2,0,0,0,39.86,36.42ZM29.69,40.06a2.09,2.09,0,0,0-.47,2.23A2.28,2.28,0,0,0,29.69,40.06Zm-.23-1.93a2.06,2.06,0,0,0-1,2A2.27,2.27,0,0,0,29.46,38.13Zm8.84,4.75a2.06,2.06,0,0,0-1.23,1.86A2.09,2.09,0,0,0,38.3,42.88Zm-8.17-6.46A2,2,0,0,0,28.4,37.8,2.08,2.08,0,0,0,30.13,36.42Zm1.58,6.46a2.06,2.06,0,0,0,1.21,1.86A2,2,0,0,0,31.71,42.88Z"/><path class="cls-2" d="M35,65.82l-.49-1.07c-.57-1.25-1.14-2.5-1.72-3.75a1,1,0,0,1-.09-.42V46.07a9.66,9.66,0,0,0,1.46.29l.18,0c.47,0,.47,0,.47.5V63.44A7.11,7.11,0,0,0,35,65.23a4.2,4.2,0,0,0,.18-1.1c0-.28,0-.57,0-.85q0-8.26,0-16.52c0-.28.06-.37.35-.38a5.48,5.48,0,0,0,1.5-.25c.2-.06.28-.06.28.18q0,7.15,0,14.31a.59.59,0,0,1,0,.26C36.52,62.5,35.78,64.13,35,65.82Z"/><path class="cls-2" d="M46.2,17.51a2.35,2.35,0,0,1-.45,1.87c-.62.72-1.25,1.44-1.84,2.19A6.67,6.67,0,0,0,42.35,25a10.34,10.34,0,0,0-.07,1.11,13.28,13.28,0,0,1-1.5,5.65,13.57,13.57,0,0,1-.8,1.37c-.1.14-.17.17-.29,0a1.66,1.66,0,0,0-.21-.16.41.41,0,0,1-.06-.64,7.5,7.5,0,0,0,1.46-4.93c-.06-1-.26-2-.36-2.95A2.81,2.81,0,0,1,41.37,22c1.57-1.5,3.16-3,4.74-4.47Z"/><path class="cls-2" d="M23.81,17.49l4.13,3.88.41.38a3.13,3.13,0,0,1,1.07,3.18,16.21,16.21,0,0,0-.31,3.1,7.27,7.27,0,0,0,1.49,4.3.38.38,0,0,1,0,.51.82.82,0,0,1-.45.36c-.14,0-.2-.21-.28-.34a14,14,0,0,1-2.12-5.81,7.78,7.78,0,0,1-.06-1.18,6.41,6.41,0,0,0-1.26-3.82,26.09,26.09,0,0,0-2-2.36A2.52,2.52,0,0,1,23.81,17.49Z"/><path class="cls-2" d="M23.38,18.62a28.55,28.55,0,0,1-3.66-2.77,16.58,16.58,0,0,1-2.86-3.17,6.76,6.76,0,0,1-1-2.6c.12,0,.15.05.2.1,2.34,2.19,4.68,4.4,7,6.59a.73.73,0,0,1,.28.71A3.17,3.17,0,0,0,23.38,18.62Z"/><path class="cls-2" d="M54.09,10.06a5.53,5.53,0,0,1-1,2.65,19.58,19.58,0,0,1-4.06,4.17c-.72.57-1.46,1.1-2.23,1.6l-.21.13a5,5,0,0,0,0-1.44c0-.16.13-.22.21-.3l6.65-6.24Z"/><path class="cls-2" d="M23.8,21.67c-3.57-1.83-6.69-5.81-7-8.27.31.37.6.73.91,1.07a26.8,26.8,0,0,0,5.54,4.59.48.48,0,0,1,.28.53A4.54,4.54,0,0,0,23.8,21.67Z"/><path class="cls-2" d="M46.19,21.71a5.14,5.14,0,0,0,.29-2.33c0-.18.13-.21.23-.27a29.5,29.5,0,0,0,4.63-3.63,18.92,18.92,0,0,0,1.9-2.14,6.43,6.43,0,0,1-.69,2,15.92,15.92,0,0,1-5.66,5.92Z"/><path class="cls-2" d="M50.33,23.56a4,4,0,0,1-.74,2.34A12.39,12.39,0,0,1,46,29.22a10.19,10.19,0,0,1-1.82,1,.39.39,0,0,1-.29.08A2.63,2.63,0,0,0,44,29.05a.34.34,0,0,1,.1-.27,1.85,1.85,0,0,0,.42-.92c0-.17.13-.2.25-.24a12.74,12.74,0,0,0,5-3.4l.25-.29Z"/><path class="cls-2" d="M19.66,23.57a15.83,15.83,0,0,0,1.46,1.56,12.82,12.82,0,0,0,4.05,2.48.35.35,0,0,1,.28.32,1.92,1.92,0,0,0,.4.84.36.36,0,0,1,.11.29,2.45,2.45,0,0,0,.13,1.22.94.94,0,0,1-.4-.13,13.4,13.4,0,0,1-5-3.78A4.39,4.39,0,0,1,19.66,23.57Z"/><path class="cls-2" d="M27.08,33.22a1.77,1.77,0,0,1-.79-.18,10.65,10.65,0,0,1-5.39-4.88,3.24,3.24,0,0,1-.4-1.29c.09,0,.11.06.15.1a13.86,13.86,0,0,0,5.41,3.82.39.39,0,0,1,.29.35A4.57,4.57,0,0,0,27.08,33.22Z"/><path class="cls-2" d="M42.91,33.23a4.72,4.72,0,0,0,.76-2.18c0-.18.14-.21.26-.26a13.84,13.84,0,0,0,5.26-3.64,3.45,3.45,0,0,1,.26-.28s0,0,0,0A3.27,3.27,0,0,1,49,28.32,10.66,10.66,0,0,1,43.76,33c-.2.08-.41.13-.61.19A1.25,1.25,0,0,1,42.91,33.23Z"/><path class="cls-2" d="M19,20.82a12.85,12.85,0,0,0,2.07,2,10.39,10.39,0,0,0,3.44,1.76c.19.05.26.12.26.33a3.27,3.27,0,0,0,.59,1.91.44.44,0,0,1,0,.37c-.09,0-.16,0-.24-.06a11.82,11.82,0,0,1-5.39-4.23A4,4,0,0,1,19,20.82Z"/><path class="cls-2" d="M51.05,20.82a3.45,3.45,0,0,1-.38,1.34,8.43,8.43,0,0,1-1.62,2.17,12.32,12.32,0,0,1-4.17,2.77c-.08,0-.18.14-.25,0a.28.28,0,0,1,0-.31,3.45,3.45,0,0,0,.6-2,.18.18,0,0,1,.15-.21A11.16,11.16,0,0,0,51,20.84Z"/><path class="cls-2" d="M24.37,24a7.56,7.56,0,0,1-1.46-.59,10.48,10.48,0,0,1-4.25-3.94,4,4,0,0,1-.58-2.22.58.58,0,0,1,.25.27,16.45,16.45,0,0,0,5.4,4.62c.31.17.46.34.42.69a1.91,1.91,0,0,0,.06.58A5.89,5.89,0,0,0,24.37,24Z"/><path class="cls-2" d="M45.61,24a2.87,2.87,0,0,0,.24-1.35.45.45,0,0,1,.29-.45,17.2,17.2,0,0,0,4.63-3.59c.33-.36.62-.77.93-1.15.06-.07.09-.17.22-.21a3.88,3.88,0,0,1-.43,1.93,10.24,10.24,0,0,1-4.4,4.22A7.89,7.89,0,0,1,45.61,24Z"/><path class="cls-2" d="M35,29.21c-1.46,0-2.91,0-4.36,0-.22,0-.29-.05-.28-.27,0-.57.26-.83.82-.84h7.7a.77.77,0,0,1,.82,1c0,.2-.15.14-.25.14H35Z"/><path class="cls-2" d="M48.55,29.91a4.25,4.25,0,0,1-1,2.24,9.87,9.87,0,0,1-4.59,3.31c-.12,0-.3.17-.37,0s-.31-.38-.24-.64a6.84,6.84,0,0,0,.21-.92.19.19,0,0,1,.19-.2,8.55,8.55,0,0,0,4.45-2.36A13.61,13.61,0,0,0,48.55,29.91Z"/><path class="cls-2" d="M21.42,29.83a12.75,12.75,0,0,0,1.86,1.94,8.16,8.16,0,0,0,3.53,1.87c.51.11.72.27.76.78,0,.32.18.61,0,.94-.11.16-.17.19-.34.14a8.71,8.71,0,0,1-3.12-1.73,9.59,9.59,0,0,1-2-2.23A3.89,3.89,0,0,1,21.42,29.83Z"/><path class="cls-2" d="M22.4,32.8a11.79,11.79,0,0,0,3.38,2.63,7.25,7.25,0,0,0,1.34.51c.15,0,.22.09.21.26a2.4,2.4,0,0,0,.25,1.34c0,.07.07.15,0,.22s-.11,0-.17,0a8.45,8.45,0,0,1-4.34-2.93A3.83,3.83,0,0,1,22.4,32.8Z"/><path class="cls-2" d="M47.58,32.88a3.93,3.93,0,0,1-1.1,2.49,8.91,8.91,0,0,1-3.85,2.37c-.08,0-.17.09-.24,0s0-.15,0-.22a2.6,2.6,0,0,0,.24-1.31c0-.15,0-.22.17-.25a10.05,10.05,0,0,0,4.51-2.9l.16-.17Z"/><path class="cls-2" d="M35,29.59h4.4c.29,0,.33.06.21.32a.68.68,0,0,1-.66.42h-7.9a.68.68,0,0,1-.66-.42c-.12-.26-.08-.32.21-.32Z"/><path class="cls-2" d="M35,21h2.3c.42,0,.57.15.56.57s-.15.54-.55.55H32.69c-.42,0-.57-.15-.56-.57s.15-.55.58-.55Z"/><path class="cls-2" d="M27.5,40.22a4.21,4.21,0,0,1-.91-.35,10.65,10.65,0,0,1-1.42-.82,3.45,3.45,0,0,1-1.5-2.83c.11,0,.16.08.23.13a10.39,10.39,0,0,0,2.53,1.54c.11,0,.2.08.19.24a2.62,2.62,0,0,0,.78,1.94Z"/><path class="cls-2" d="M46.34,36.16a3.48,3.48,0,0,1-1.21,2.65,8.61,8.61,0,0,1-2.46,1.37l-.11,0c0-.11.06-.14.11-.2a2.66,2.66,0,0,0,.71-1.81c0-.11,0-.21.11-.27A10.52,10.52,0,0,0,46.34,36.16Z"/><path class="cls-2" d="M35,27.72c-.65,0-1.3,0-2,0-.37,0-.45-.1-.45-.51s.07-.5.44-.5h3.86c.37,0,.44.09.43.53s-.08.48-.45.48C36.28,27.73,35.66,27.72,35,27.72Z"/><path class="cls-2" d="M35,24.92H33.07c-.37,0-.43-.07-.44-.46s.08-.54.43-.54H37c.34,0,.42.11.41.52s-.06.48-.41.48Z"/><path class="cls-2" d="M35,22.54h1.91c.35,0,.42.08.42.44s-.06.55-.4.56H33c-.34,0-.41-.11-.41-.56s.08-.44.43-.44Z"/><path class="cls-2" d="M35,26.32H33.06c-.35,0-.43-.09-.43-.5s.07-.5.44-.5H37c.34,0,.41.09.41.49s-.07.51-.41.51Z"/><path class="cls-2" d="M43.25,23.54A13.51,13.51,0,0,1,46,19.81,3.35,3.35,0,0,1,43.25,23.54Z"/><path class="cls-2" d="M24,19.78a16.89,16.89,0,0,1,2.78,3.75C25.23,23.57,23.75,21.57,24,19.78Z"/><path class="cls-2" d="M26.71,42.45A5.6,5.6,0,0,0,28,43c.06,0,.09.08.12.13a2.28,2.28,0,0,0,1.42,1.12,1.8,1.8,0,0,1,.79.48.61.61,0,0,1-.71.21,5.53,5.53,0,0,1-2.17-1A1.93,1.93,0,0,1,26.71,42.45Z"/><path class="cls-2" d="M43.29,42.45A1.94,1.94,0,0,1,42.54,44a5.64,5.64,0,0,1-2.38,1c-.22,0-.31-.17-.49-.24a1.85,1.85,0,0,1,.77-.49,2.34,2.34,0,0,0,1.46-1.12.26.26,0,0,1,.16-.15A5.7,5.7,0,0,0,43.29,42.45Z"/><path class="cls-2" d="M41.35,34.09a3,3,0,0,0-.61-1.1.17.17,0,0,1-.07-.15.87.87,0,0,1,.65-.61,3.34,3.34,0,0,0,1.55-.59l.27-.19A3.77,3.77,0,0,1,41.35,34.09Z"/><path class="cls-2" d="M28.66,34.08a3.6,3.6,0,0,1-1.78-2.62,3.66,3.66,0,0,0,1.51.73,2.35,2.35,0,0,0,.37.05.39.39,0,0,1,.35.21.51.51,0,0,1,0,.78A1.94,1.94,0,0,0,28.66,34.08Z"/><path class="cls-2" d="M45,39.52c0,1.5-2.28,3-3.46,3.19,0-.11.09-.11.15-.15a2.6,2.6,0,0,0,1.45-1.93.19.19,0,0,1,.12-.18A10.43,10.43,0,0,0,45,39.52Z"/><path class="cls-2" d="M25,39.52a11.57,11.57,0,0,0,1.77.94c.08,0,.09.09.1.17a2.6,2.6,0,0,0,1.47,1.94l.12.08s0,0,0,.06C27.05,42.55,25.11,40.79,25,39.52Z"/><path class="cls-2" d="M45.39,23a1.82,1.82,0,0,1-.28,1A3.06,3.06,0,0,1,43,25.37c-.2,0-.31,0-.26-.25a7.39,7.39,0,0,1,.18-.89c0-.1.06-.18.18-.19A3.75,3.75,0,0,0,45.39,23Z"/><path class="cls-2" d="M24.6,23a3.83,3.83,0,0,0,1.87,1c.58.12.59.12.68.73s.26.84-.64.54a2.58,2.58,0,0,1-1.87-1.94C24.62,23.23,24.62,23.14,24.6,23Z"/><path class="cls-2" d="M44.77,25.05A2.17,2.17,0,0,1,43,27.3c-.24,0-.35,0-.31-.28s0-.65,0-1c0-.1,0-.2.14-.21A3.32,3.32,0,0,0,44.77,25.05Z"/><path class="cls-2" d="M25.23,25.06a4.33,4.33,0,0,0,1,.6,3,3,0,0,0,.83.18c.12,0,.17.05.17.17a6.23,6.23,0,0,0,.05,1.06c0,.22-.07.25-.25.23a2.08,2.08,0,0,1-1.8-1.76A1,1,0,0,1,25.23,25.06Z"/><path class="cls-2" d="M43.59,29.36a2.46,2.46,0,0,1-2.32,2.4c.26-.56.5-1.11.7-1.68a.14.14,0,0,1,.14-.12A2.72,2.72,0,0,0,43.59,29.36Z"/><path class="cls-2" d="M28.72,31.77a2.48,2.48,0,0,1-2.32-2.4l.47.29a1.36,1.36,0,0,0,.65.24c.43,0,.55.24.66.58S28.53,31.33,28.72,31.77Z"/><path class="cls-2" d="M42.17,29.49c.14-.56.3-1.09.39-1.63,0-.1.08-.12.17-.11a2.27,2.27,0,0,0,1.38-.42C44.37,28.14,43.21,29.41,42.17,29.49Z"/><path class="cls-2" d="M25.87,27.32a2.28,2.28,0,0,0,1.44.43c.09,0,.12.05.13.13a14.57,14.57,0,0,0,.35,1.45c0,.07.05.17-.09.15C26.77,29.34,25.69,28.23,25.87,27.32Z"/><path class="cls-2" d="M32.7,31.82v-.95c0-.12,0-.16.15-.16h1.8c.13,0,.15.06.16.18,0,.55,0,.56-.5.6A8.53,8.53,0,0,0,32.7,31.82Z"/><path class="cls-2" d="M37.3,31.82a7.93,7.93,0,0,0-2-.35c-.12,0-.14-.06-.15-.16-.06-.6-.06-.6.54-.6h1.36c.16,0,.22,0,.21.21S37.3,31.51,37.3,31.82Z"/><path class="cls-2" d="M34.75,32.11A2.45,2.45,0,0,1,32.4,33c.12-.24.35-.35.51-.52a2.72,2.72,0,0,1,1.52-.41A.7.7,0,0,1,34.75,32.11Z"/><path class="cls-2" d="M37.12,32.46c.13.19.35.28.46.48a2.29,2.29,0,0,1-2.33-.83,2.26,2.26,0,0,1,1.55.21l.21.09a.11.11,0,0,0,.12.06Z"/><path class="cls-2" d="M29.6,33.11A2.31,2.31,0,0,1,29,35.28,2.1,2.1,0,0,1,29.6,33.11Z"/><path class="cls-2" d="M27.85,35.4A2.05,2.05,0,0,1,28,37.6,2.09,2.09,0,0,1,27.85,35.4Z"/><path class="cls-2" d="M41,35.28a2.28,2.28,0,0,1-.65-2.14A2,2,0,0,1,41,35.28Z"/><path class="cls-2" d="M42,37.62a2.29,2.29,0,0,1,.13-2.24A2.07,2.07,0,0,1,42,37.62Z"/><path class="cls-2" d="M27.27,40.75a2.19,2.19,0,0,1,1.51,1.6C28.18,42.36,27.38,41.53,27.27,40.75Z"/><path class="cls-2" d="M39.14,33.44a3.72,3.72,0,0,1-.75-.49s0-.08-.09-.07h0a2.7,2.7,0,0,1-.51-1.13,2.12,2.12,0,0,1,1.45,1.6C39.25,33.43,39.21,33.44,39.14,33.44Z"/><path class="cls-2" d="M42.73,40.75a2,2,0,0,1-1.49,1.62A2.09,2.09,0,0,1,42.73,40.75Z"/><path class="cls-2" d="M31.61,33a3.46,3.46,0,0,1-.75.49c-.09,0-.11,0-.1-.12a2.13,2.13,0,0,1,1.45-1.57,2.9,2.9,0,0,1-.51,1.13h0C31.65,32.87,31.63,32.91,31.61,33Z"/><path class="cls-2" d="M39.42,44.14c0-.28.31-.38.49-.54s.21-.14.31-.21.1,0,.1-.07h0c.19,0,.38-.08.57-.1s.39,0,.63,0A2.36,2.36,0,0,1,39.42,44.14Z"/><path class="cls-2" d="M43.07,38.15a2.16,2.16,0,0,1-1,2A2,2,0,0,1,43.07,38.15Z"/><path class="cls-2" d="M29.78,43.39a3.32,3.32,0,0,1,.66.51c.06.07.17.12.14.24a2.26,2.26,0,0,1-2.06-.9,3.07,3.07,0,0,1,1.17.09h0C29.68,43.39,29.73,43.39,29.78,43.39Z"/><path class="cls-2" d="M28,40.16a2.28,2.28,0,0,1-1.06-2A2.08,2.08,0,0,1,28,40.16Z"/><path class="cls-2" d="M37.53,45.28c-.08-.07-.2-.06-.28-.17a2.34,2.34,0,0,1,1.34-.34,2.86,2.86,0,0,1,.94.3A2.32,2.32,0,0,1,37.53,45.28Z"/><path class="cls-2" d="M34,45.68a2.3,2.3,0,0,1-.38-2.17,2.25,2.25,0,0,1,.58,1.93l-.06.28Z"/><path class="cls-2" d="M31.42,44.77a2.27,2.27,0,0,1,1.32.34c-.06.11-.18.1-.27.17a2.4,2.4,0,0,1-1.84-.11l-.1-.06-.05,0A2.57,2.57,0,0,1,31.42,44.77Z"/><path class="cls-2" d="M35.89,45.72a2.35,2.35,0,0,1,.33-2c.05-.08.09-.17.21-.21A2.27,2.27,0,0,1,36,45.68Z"/><path class="cls-2" d="M34.62,45.77a.38.38,0,0,1,.16-.48.36.36,0,0,1,.44,0,.38.38,0,0,1,.15.48C35.11,46.1,34.89,46.1,34.62,45.77Z"/><path class="cls-2" d="M41.58,35.33c-.36-.44-.24-.75.43-1.12A2.78,2.78,0,0,1,41.58,35.33Z"/><path class="cls-2" d="M28.43,35.34a2.74,2.74,0,0,1-.44-1.1C28.64,34.5,28.73,34.76,28.43,35.34Z"/><path class="cls-5" d="M37.13,32.47a.11.11,0,0,1-.12-.06Z"/><path class="cls-2" d="M27.53,40.21h0l0,0s0,0,0,0Z"/><path class="cls-2" d="M42.47,40.2l0,0,0,0,0,0Z"/><path class="cls-2" d="M38.93,41.2H36.58a.4.4,0,0,0-.41.24c-.37.67-.76,1.33-1.17,2-.1-.18-.19-.32-.28-.47-.3-.52-.61-1-.9-1.58a.39.39,0,0,0-.39-.22h-2.3c-.05-.1,0-.15.07-.21.33-.59.66-1.18,1-1.76a.48.48,0,0,0,0-.58c-.35-.56-.67-1.13-1-1.7-.05-.08-.13-.15-.11-.29.76,0,1.53,0,2.29,0a.42.42,0,0,0,.43-.26c.34-.61.7-1.21,1-1.81.09-.16.14-.19.24,0,.34.62.71,1.22,1.05,1.84a.38.38,0,0,0,.42.23h2.34c-.13.22-.23.41-.33.59-.29.5-.58,1-.88,1.5a.32.32,0,0,0,0,.37Z"/><path class="cls-2" d="M29.23,35.58a2.19,2.19,0,0,1,2.13-.75A2.05,2.05,0,0,1,29.23,35.58Z"/><path class="cls-2" d="M36.86,34.07a2.07,2.07,0,0,1,2.23-.23A2.12,2.12,0,0,1,36.86,34.07Z"/><path class="cls-2" d="M40.8,35.58a2.32,2.32,0,0,1-2.23-.73A2.29,2.29,0,0,1,40.8,35.58Z"/><path class="cls-2" d="M40.55,38.14a2.13,2.13,0,0,1,1.05,2A2.05,2.05,0,0,1,40.55,38.14Z"/><path class="cls-2" d="M33.15,34.08a2.18,2.18,0,0,1-2.24-.24A2.08,2.08,0,0,1,33.15,34.08Z"/><path class="cls-2" d="M40.32,40.08a2.17,2.17,0,0,1,.5,2.19A2.07,2.07,0,0,1,40.32,40.08Z"/><path class="cls-2" d="M30.44,41.65a2.05,2.05,0,0,1,.48,2.17A2.06,2.06,0,0,1,30.44,41.65Z"/><path class="cls-2" d="M39.58,41.62a2.29,2.29,0,0,1-.49,2.23A2.09,2.09,0,0,1,39.58,41.62Z"/><path class="cls-2" d="M39.86,36.42a2,2,0,0,1,1.75,1.37A2.08,2.08,0,0,1,39.86,36.42Z"/><path class="cls-2" d="M29.69,40.06a2.28,2.28,0,0,1-.47,2.23A2.09,2.09,0,0,1,29.69,40.06Z"/><path class="cls-2" d="M29.46,38.13a2.27,2.27,0,0,1-1,2A2.06,2.06,0,0,1,29.46,38.13Z"/><path class="cls-2" d="M38.3,42.88a2.09,2.09,0,0,1-1.23,1.86A2.06,2.06,0,0,1,38.3,42.88Z"/><path class="cls-2" d="M30.13,36.42A2.08,2.08,0,0,1,28.4,37.8,2,2,0,0,1,30.13,36.42Z"/><path class="cls-2" d="M31.71,42.88a2,2,0,0,1,1.21,1.86A2.06,2.06,0,0,1,31.71,42.88Z"/><path class="cls-3" d="M31.61,33s0-.08.09-.07S31.66,33,31.61,33Z"/><path class="cls-3" d="M38.3,32.88c.05,0,.07,0,.09.07S38.29,32.94,38.3,32.88Z"/><path class="cls-3" d="M29.78,43.39c-.05,0-.1,0-.1-.07S29.76,43.35,29.78,43.39Z"/><path class="cls-3" d="M40.32,43.32c0,.07,0,.07-.1.07S40.26,43.31,40.32,43.32Z"/></g></g></g></svg>