<svg xmlns="http://www.w3.org/2000/svg" viewBox="0 0 69.05 36.7"><defs><style>.cls-1{fill:#fff;}</style></defs><g id="Layer_2" data-name="Layer 2"><g id="Layer_1-2" data-name="Layer 1"><path class="cls-1" d="M59.88,36.89a.76.76,0,0,1-.61-.35c-2-2.79-14.08-27-14.59-28l0-.11c-.11-.61-1-6,.33-7.36A2.54,2.54,0,0,1,48.05.48,2.85,2.85,0,0,1,49.3,2.65,7.19,7.19,0,0,1,48,7.59C51.45,10.2,54.8,10.77,57.53,18c.85,2.26,1.37,3.67,1.64,4.41.5-2.56,2.26-11,4-12.19A2.4,2.4,0,0,1,66.09,10c1.38,1.05,2.41,4,3.16,9l0,.11,0,.1c-.27.69-6.46,17-9.17,17.6ZM45,8.21c1.2,2.41,12.87,25.63,14.51,27.88a.41.41,0,0,0,.46.18c2.07-.49,7-12.48,8.84-17.2-.71-4.7-1.69-7.56-2.94-8.5a2.1,2.1,0,0,0-2.58.24c-1.51,1-3.33,9.38-3.9,12.52l-.13.73-.24-.67s.62-.32-.73-3.91c-2.84-7.54-8.52-9.85-10.8-11.57a.28.28,0,0,1-.09-.07l-.11-.12.07-.4.14,0h0a6.24,6.24,0,0,0,1.33-4.53,2.22,2.22,0,0,0-1-1.73,2.23,2.23,0,0,0-2.69.5C44.3,2.51,44.76,6.63,45,8.21Zm2.56-.9.09.05A.21.21,0,0,0,47.59,7.31Z" transform="translate(-0.22 -0.19)"/><path class="cls-1" d="M10.74,11.44V5.28H8.81v-1h1.87a1.24,1.24,0,0,1,.87.33,1,1,0,0,1,.36.78v6.08Z" transform="translate(-0.22 -0.19)"/><path class="cls-1" d="M16.83,10.84a.57.57,0,0,1-.17.42.56.56,0,0,1-.42.18H13v-1h2.64V5.28H14.18V7.93H13V4.25h3.81Z" transform="translate(-0.22 -0.19)"/><path class="cls-1" d="M21.27,10.74a.66.66,0,0,1-.73.7H18.1l-.44-7.19h4ZM18.88,5.28l.31,5.12h1l.3-5.12Z" transform="translate(-0.22 -0.19)"/><path class="cls-1" d="M25.13,11.44V5.28H22.48v-1h3.81v7.19Zm-2.65,0V7.24h1.16v4.2Z" transform="translate(-0.22 -0.19)"/><path class="cls-1" d="M32.89,11.44V5.28H31.4v6.16H29.59v-1h.65V5.28h-.52v-1h4.33v7.19Z" transform="translate(-0.22 -0.19)"/><path class="cls-1" d="M35.53,8.84V5.28h-.64v-1h1.79V8.84Z" transform="translate(-0.22 -0.19)"/><path class="cls-1" d="M37.56,11.44v-1h2.12V5.28h-2v-1h3.15V10.4h.53v1Z" transform="translate(-0.22 -0.19)"/><path class="cls-1" d="M2.16,21.44V15.28H.22v-1H2.09a1.21,1.21,0,0,1,.87.33,1,1,0,0,1,.36.78v6.08Z" transform="translate(-0.22 -0.19)"/><path class="cls-1" d="M4.8,18.84V15.28H4.16v-1H6v4.59Z" transform="translate(-0.22 -0.19)"/><path class="cls-1" d="M7,21.44V14.25H8.11v7.19Z" transform="translate(-0.22 -0.19)"/><path class="cls-1" d="M9.22,21.44V14.25h1.16v7.19Z" transform="translate(-0.22 -0.19)"/><path class="cls-1" d="M11.49,21.44V17.73l1-1-.91-2.44H12.8L14,17.57l.29-.29v-3h1.16v3.38l-1,1,1,2.77H14.16l-1.24-3.65-.27.27v3.38Z" transform="translate(-0.22 -0.19)"/><path class="cls-1" d="M22,21.44V15.28H20.54v6.16h-1.8v-1h.64V15.28h-.52v-1h4.33v7.19Z" transform="translate(-0.22 -0.19)"/><path class="cls-1" d="M24.3,21.44V14.25h1.16v7.19Z" transform="translate(-0.22 -0.19)"/><path class="cls-1" d="M29.22,21.44V15.28H27.73v6.16H26.57V14.25h3.81v7.19Z" transform="translate(-0.22 -0.19)"/><path class="cls-1" d="M31.49,21.44V14.25h1.16v7.19Z" transform="translate(-0.22 -0.19)"/><path class="cls-1" d="M33.6,21.44v-1h2.31V15.28H33.6v-1h3.47v6.59a.57.57,0,0,1-.17.42.54.54,0,0,1-.41.18Z" transform="translate(-0.22 -0.19)"/><path class="cls-1" d="M41.32,20.18a1.23,1.23,0,0,1-.36.89,1.17,1.17,0,0,1-.87.37H38.55v-1h1.61V15.28H37.84v-2H39v.95h2.31Z" transform="translate(-0.22 -0.19)"/><path class="cls-1" d="M16,31.44V25.28H15.5v-1h4.31v7.19Zm2.65-6.16h-1.5V30.4h1.5Z" transform="translate(-0.22 -0.19)"/><path class="cls-1" d="M21.29,28.84V25.28h-.64v-1h1.79v4.59Z" transform="translate(-0.22 -0.19)"/><path class="cls-1" d="M26.38,25.28v6.16H25.22V25.28H23.1v-1h3.81v1Z" transform="translate(-0.22 -0.19)"/><path class="cls-1" d="M30.5,31.44V25.28H29v6.16H27.85V24.25h3.81v7.19Z" transform="translate(-0.22 -0.19)"/><path class="cls-1" d="M32.77,31.44V24.25h1.16v7.19Z" transform="translate(-0.22 -0.19)"/><path class="cls-1" d="M35.42,28.84V25.28h-.65v-1h1.8v4.59Z" transform="translate(-0.22 -0.19)"/><path class="cls-1" d="M39.48,31.44v-1h.62V25.28H38.93l-.38,6.16H37.44l.37-6.16h-.42v-1h1.47v.42l.53-.42h1.29a.58.58,0,0,1,.59.59v6.6Z" transform="translate(-0.22 -0.19)"/></g></g></svg>